<svg version="1.1" xmlns="http://www.w3.org/2000/svg" xmlns:xlink="http://www.w3.org/1999/xlink" x="0px" y="0px" viewBox="0 0 3000 3000"><ellipse opacity="0.3" cx="1400.4" cy="2615.2" rx="472.8" ry="130.6"></ellipse><g transform="matrix(-2.9166107177734375, 0, 0, 2.9166107177734375, 1880.95,1719.3)"><g transform="matrix(1, 0, 0, 1, 0, 0)"><path fill="#C75151" d="M15.6,43.5c-6,16-10,32.3-12.1,49.1c-0.7,5.4-1.3,10.8-1.9,16.1c-0.9,6.2,0.5,13.1,4.2,20.7 c3.4,6,8,12,13.5,17.8c5.6,5.9,10.8,8.9,15.5,8.9c4.8,0,10-2.7,15.8-8.1c5.4-5,9.3-9.5,11.9-13.5c4-6.2,6.3-12.2,7-18.1 c1.2-14,3.8-28.1,7.7-42.3c3.9-14.2,12.5-29.8,25.9-46.8L49.7,0C33.7,10.8,22.4,25.3,15.6,43.5z"></path><path d="M34.8,161.1C34.8,161.1,34.8,161,34.8,161.1c6.2,0,12.5-3.1,19.2-9.4c5.7-5.3,9.9-10,12.7-14.4c4.4-6.8,7-13.6,7.8-20.2c0-0.1,0-0.1,0-0.2c1.2-13.6,3.7-27.6,7.5-41.5c3.7-13.5,12.1-28.7,25-45.1c1.7-2.2,1.3-5.3-0.8-7c-2.2-1.7-5.3-1.3-7,0.8C85.5,41.6,76.5,57.9,72.4,72.7c-3.9,14.5-6.5,29-7.8,43.1c-0.6,5-2.7,10.4-6.3,15.9c-2.4,3.7-6.1,7.9-11.1,12.5c-4.7,4.4-9,6.7-12.4,6.7c0,0,0,0,0,0c-3.3,0-7.4-2.5-11.9-7.3c-5.3-5.5-9.5-11.2-12.8-16.8c-3.2-6.6-4.4-12.5-3.7-17.6c0-0.1,0-0.1,0-0.2c0.6-5.3,1.2-10.7,1.9-16.1c2.1-16.3,6.1-32.4,11.9-48c6.4-17.1,17.2-30.9,32.3-41.1c2.3-1.5,2.9-4.7,1.3-6.9c-1.5-2.3-4.7-2.9-6.9-1.3C30.1,7.2,18,22.7,10.9,41.7C4.8,58,0.7,74.8-1.5,91.9c-0.7,5.4-1.3,10.8-1.9,16.1c-1.1,7.1,0.5,15,4.7,23.5c0,0.1,0.1,0.2,0.1,0.3c3.6,6.3,8.4,12.7,14.3,18.8C22.3,157.7,28.5,161,34.8,161.1z M5.7,129.4L5.7,129.4L5.7,129.4z"></path></g></g><g transform="matrix(-2.9166107177734375, 0, 0, 2.9166107177734375, 1880.95,1719.3)"><g transform="matrix( 1, 0, 0, 1, 0,0) "><path d="M34.8,161.1C34.8,161.1,34.8,161,34.8,161.1c6.2,0,12.5-3.1,19.2-9.4c5.7-5.3,9.9-10,12.7-14.4c4.4-6.8,7-13.6,7.8-20.2c0-0.1,0-0.1,0-0.2c1.2-13.6,3.7-27.6,7.5-41.5c3.7-13.5,12.1-28.7,25-45.1c1.7-2.2,1.3-5.3-0.8-7c-2.2-1.7-5.3-1.3-7,0.8C85.5,41.6,76.5,57.9,72.4,72.7c-3.9,14.5-6.5,29-7.8,43.1c-0.6,5-2.7,10.4-6.3,15.9c-2.4,3.7-6.1,7.9-11.1,12.5c-4.7,4.4-9,6.7-12.4,6.7c0,0,0,0,0,0c-3.3,0-7.4-2.5-11.9-7.3c-5.3-5.5-9.5-11.2-12.8-16.8c-3.2-6.6-4.4-12.5-3.7-17.6c0-0.1,0-0.1,0-0.2c0.6-5.3,1.2-10.7,1.9-16.1c2.1-16.3,6.1-32.4,11.9-48c6.4-17.1,17.2-30.9,32.3-41.1c2.3-1.5,2.9-4.7,1.3-6.9c-1.5-2.3-4.7-2.9-6.9-1.3C30.1,7.2,18,22.7,10.9,41.7C4.8,58,0.7,74.8-1.5,91.9c-0.7,5.4-1.3,10.8-1.9,16.1c-1.1,7.1,0.5,15,4.7,23.5c0,0.1,0.1,0.2,0.1,0.3c3.6,6.3,8.4,12.7,14.3,18.8C22.3,157.7,28.5,161,34.8,161.1z M5.7,129.4L5.7,129.4L5.7,129.4z"></path></g></g><g transform="matrix(2.9166107177734375, 0, 0, 2.9166107177734375, 468.15,1761.65)"><g transform="matrix(1, 0, 0, 1, 0, 0)"><path fill="#C75151" d="M240.4,104.4c-0.7-0.2-2.8-0.2-6.2-0.1c-4.9,0-9-0.1-12.2-0.2c-13.4-0.5-26.4-2.4-39-5.8 c-17.4-4.7-34.2-12.3-50.5-23c-5.3-3.5-10.3-7.1-14.8-10.7c-0.1-0.1-0.2-0.2-0.3-0.3c-3.4-2.8-5.6-4.8-6.6-6.1 c1,1.2,3.2,3.2,6.6,6.1c0.1,0.1,0.2,0.2,0.3,0.3c0.3-1.4,0.9-3.7,1.7-6.8c1.5-5.8,4.5-10.9,9-15.3c3.3-3.3,7.7-6.4,13.2-9.5 c3-1.7,7.2-3.9,12.6-6.6c3.8-2.3,6-4.6,6.6-6.8c1.1-4-0.7-7.7-5.3-11.3c-3.8-3-8.7-5.2-14.5-6.7c-6.6-1.8-13.5-2-20.8-0.7 c-7,1.2-13.6,3.7-19.9,7.4c-6.2,3.7-11.4,8.1-15.7,13.4c-4.4,5.6-7.3,11.5-8.5,17.6l-0.3,1c3.3,1.2,6.8,2.6,10.3,4.2 c-3.6-1.6-7-3-10.3-4.2C42.2,28.5,18.4,38.4,3.9,70.2C0.7,79-0.6,85.4,0.2,89.2c0.9,4.3,2.6,6.8,5.2,7.5 c1.6,0.4,4.5-0.1,8.6-1.4c2.6-0.8,7.1-2.4,13.6-4.7c13.8-4.3,26.1-5,36.8-2.2c4.4,1.2,8.3,3.3,11.8,6.4 c2.7,2.4,5.9,6.2,9.5,11.3c2.1,3,5.7,8.2,10.8,15.7c5.1,6.8,10.4,13.2,16.1,19c8.8,9.1,16.8,16.5,23.9,22.2 c10.4,8.2,21.2,14.9,32.5,19.9c9.5,4.2,21.7,9.5,36.7,15.8c2.6,1,4.8,2,6.6,2.9c1.5-1.1,2.9-2.1,4.3-3.2 c7.2-5.6,13.2-11.4,17.9-17.7c6.5-8.5,11.3-18.5,14.4-30.1c2.8-10.6,2.9-21.1,0.3-31.3c-1-4.1-2.4-7.6-4.2-10.4 C243.6,106.4,242,104.8,240.4,104.4z"></path><path d="M212.3,206.8c-0.8,0-1.5-0.2-2.2-0.5c-1.7-0.8-3.8-1.8-6.2-2.7c0,0-0.1,0-0.1,0c-14.9-6.3-27.2-11.7-36.7-15.9 c-11.6-5.2-22.9-12.1-33.6-20.5c-7.3-5.8-15.5-13.4-24.4-22.6c-5.8-6-11.4-12.6-16.5-19.5c0,0-0.1-0.1-0.1-0.1 c-5.1-7.3-8.7-12.6-10.7-15.6c-3.4-4.8-6.3-8.3-8.7-10.4c-2.9-2.6-6.1-4.3-9.7-5.3c-9.7-2.6-21.1-1.9-34,2.1 c-6.4,2.3-11,3.8-13.6,4.7c-5.2,1.7-8.7,2.2-11.4,1.6c-0.1,0-0.1,0-0.2,0C1,100.7-3.1,98-4.6,90.2c-1-4.9,0.2-11.8,3.9-21.8 c0-0.1,0.1-0.2,0.1-0.3c7.7-17,18.3-28.4,31.4-33.8c11.8-4.9,25.7-5,41.4-0.4c1.7-5.3,4.5-10.5,8.4-15.3c0,0,0,0,0,0 c4.6-5.7,10.4-10.7,17-14.6c6.8-4,14-6.7,21.6-8.1c8-1.4,15.7-1.1,23,0.8c6.4,1.7,11.9,4.3,16.3,7.6c7.9,6.2,8.2,12.4,7.1,16.6 c-1,3.5-3.8,6.7-8.8,9.8c-0.1,0.1-0.2,0.1-0.4,0.2c-5.2,2.7-9.4,4.8-12.4,6.5c0,0,0,0,0,0c-5.1,2.8-9.2,5.7-12.1,8.7 c-3.8,3.8-6.3,8.1-7.7,13c-0.4,1.4-0.7,2.5-0.9,3.6c3.7,2.9,7.7,5.7,11.9,8.5c15.7,10.3,32.2,17.8,49,22.3 c12.2,3.3,25,5.1,37.9,5.6c3.2,0.1,7.2,0.2,12,0.2c5.4-0.2,6.7,0,7.5,0.2c0,0,0.1,0,0.1,0c2.9,0.8,5.5,3.1,7.8,6.9 c2,3.2,3.6,7.2,4.7,11.8c2.8,11,2.7,22.4-0.3,33.8c-3.3,12.2-8.4,23-15.3,31.9c-5,6.5-11.3,12.8-18.9,18.6 c-1.5,1.1-3,2.2-4.5,3.3C214.4,206.5,213.4,206.8,212.3,206.8z M207.7,194.3c1.5,0.6,2.8,1.2,4.1,1.7c0.6-0.5,1.3-0.9,1.9-1.4 c6.8-5.3,12.6-10.9,17-16.7c6-7.9,10.6-17.5,13.5-28.4c2.6-9.7,2.7-19.4,0.3-28.8c0,0,0,0,0,0c-0.9-3.6-2.1-6.6-3.6-9 c0,0,0-0.1-0.1-0.1c-0.9-1.5-1.5-2.2-1.8-2.4c-0.6,0-1.9-0.1-4.8,0c0,0-0.1,0-0.1,0c-4.9,0-9.1-0.1-12.5-0.2 c-13.7-0.5-27.2-2.5-40.1-6c-17.8-4.8-35.3-12.7-51.9-23.6c-5.4-3.6-10.5-7.3-15.2-11c-0.1-0.1-0.2-0.2-0.3-0.3 c-0.1-0.1-0.2-0.1-0.2-0.2c-4.8-4-6.4-5.7-7.1-6.7c-1.7-2.2-1.3-5.3,0.9-7c2.2-1.7,5.3-1.3,7,0.9c0,0.1,0.1,0.1,0.2,0.2 c1.8-6.1,5.2-11.7,9.9-16.4c3.6-3.6,8.4-7,14.3-10.3c3-1.7,7.3-3.9,12.5-6.6c3.8-2.4,4.2-3.7,4.2-3.8c0.2-0.7,0.7-2.7-3.6-6.1 c-3.3-2.5-7.5-4.5-12.7-5.9c0,0,0,0,0,0c-5.8-1.6-12.1-1.8-18.7-0.7c-6.3,1.1-12.5,3.4-18.2,6.8C97,15.9,92.2,20,88.4,24.8 c-3.2,4-5.4,8.2-6.8,12.4c2.1,0.8,4.2,1.7,6.4,2.7c2.5,1.1,3.6,4.1,2.5,6.6c-1.1,2.5-4.1,3.6-6.6,2.5c-3.4-1.6-6.7-2.9-9.9-4 c0,0,0,0,0,0c-15.4-5.5-28.6-6-39.3-1.5C24,48,15.2,57.6,8.6,72.1C4.8,82.3,4.8,86.6,5.1,88.2c0.4,2.2,1.1,3.4,1.6,3.6 c0.4,0,2-0.1,5.9-1.3c2.6-0.8,7.1-2.4,13.5-4.6c0.1,0,0.1,0,0.2-0.1c14.7-4.6,28-5.3,39.6-2.2c5.2,1.4,9.8,4,13.8,7.6 c3,2.7,6.3,6.7,10.2,12.1c0,0,0,0.1,0.1,0.1c2,3,5.6,8.2,10.7,15.6c4.9,6.6,10.2,12.8,15.6,18.5c8.6,8.9,16.5,16.2,23.5,21.8 c10,7.9,20.6,14.4,31.5,19.2C180.6,182.7,192.9,188,207.7,194.3z M238.9,109.2C238.9,109.2,238.9,109.2,238.9,109.2 S238.9,109.2,238.9,109.2z"></path></g></g><g transform="matrix( 2.9166107177734375, 0, 0, 2.9166107177734375, 468.15,1761.65) "><g transform="matrix( 1, 0, 0, 1, 0,0) "><path d="M212.3,206.8c-0.8,0-1.5-0.2-2.2-0.5c-1.7-0.8-3.8-1.8-6.2-2.7h-0.1c-14.9-6.3-27.2-11.7-36.7-15.9 c-11.6-5.2-22.9-12.1-33.6-20.5c-7.3-5.8-15.5-13.4-24.4-22.6c-5.8-6-11.4-12.6-16.5-19.5l-0.1-0.1c-5.1-7.3-8.7-12.6-10.7-15.6 c-3.4-4.8-6.3-8.3-8.7-10.4c-2.9-2.6-6.1-4.3-9.7-5.3c-9.7-2.6-21.1-1.9-34,2.1c-6.4,2.3-11,3.8-13.6,4.7 c-5.2,1.7-8.7,2.2-11.4,1.6c-0.1,0-0.1,0-0.2,0C1,100.7-3.1,98-4.6,90.2c-1-4.9,0.2-11.8,3.9-21.8c0-0.1,0.1-0.2,0.1-0.3 c7.7-17,18.3-28.4,31.4-33.8c11.8-4.9,25.7-5,41.4-0.4c1.7-5.3,4.5-10.5,8.4-15.3l0,0C85.2,12.9,91,7.9,97.6,4 c6.8-4,14-6.7,21.6-8.1c8-1.4,15.7-1.1,23,0.8c6.4,1.7,11.9,4.3,16.3,7.6c7.9,6.2,8.2,12.4,7.1,16.6c-1,3.5-3.8,6.7-8.8,9.8 c-0.1,0.1-0.2,0.1-0.4,0.2c-5.2,2.7-9.4,4.8-12.4,6.5l0,0c-5.1,2.8-9.2,5.7-12.1,8.7c-3.8,3.8-6.3,8.1-7.7,13 c-0.4,1.4-0.7,2.5-0.9,3.6c3.7,2.9,7.7,5.7,11.9,8.5c15.7,10.3,32.2,17.8,49,22.3c12.2,3.3,25,5.1,37.9,5.6 c3.2,0.1,7.2,0.2,12,0.2c5.4-0.2,6.7,0,7.5,0.2h0.1c2.9,0.8,5.5,3.1,7.8,6.9c2,3.2,3.6,7.2,4.7,11.8c2.8,11,2.7,22.4-0.3,33.8 c-3.3,12.2-8.4,23-15.3,31.9c-5,6.5-11.3,12.8-18.9,18.6c-1.5,1.1-3,2.2-4.5,3.3C214.4,206.5,213.4,206.8,212.3,206.8z  M207.7,194.3c1.5,0.6,2.8,1.2,4.1,1.7c0.6-0.5,1.3-0.9,1.9-1.4c6.8-5.3,12.6-10.9,17-16.7c6-7.9,10.6-17.5,13.5-28.4 c2.6-9.7,2.7-19.4,0.3-28.8l0,0c-0.9-3.6-2.1-6.6-3.6-9c0,0,0-0.1-0.1-0.1c-0.9-1.5-1.5-2.2-1.8-2.4c-0.6,0-1.9-0.1-4.8,0h-0.1 c-4.9,0-9.1-0.1-12.5-0.2c-13.7-0.5-27.2-2.5-40.1-6c-17.8-4.8-35.3-12.7-51.9-23.6c-5.4-3.6-10.5-7.3-15.2-11 c-0.1-0.1-0.2-0.2-0.3-0.3c-0.1-0.1-0.2-0.1-0.2-0.2c-4.8-4-6.4-5.7-7.1-6.7c-1.7-2.2-1.3-5.3,0.9-7c2.2-1.7,5.3-1.3,7,0.9 c0,0.1,0.1,0.1,0.2,0.2c1.8-6.1,5.2-11.7,9.9-16.4c3.6-3.6,8.4-7,14.3-10.3c3-1.7,7.3-3.9,12.5-6.6c3.8-2.4,4.2-3.7,4.2-3.8 c0.2-0.7,0.7-2.7-3.6-6.1c-3.3-2.5-7.5-4.5-12.7-5.9l0,0c-5.8-1.6-12.1-1.8-18.7-0.7c-6.3,1.1-12.5,3.4-18.2,6.8 C97,15.9,92.2,20,88.4,24.8c-3.2,4-5.4,8.2-6.8,12.4c2.1,0.8,4.2,1.7,6.4,2.7c2.5,1.1,3.6,4.1,2.5,6.6s-4.1,3.6-6.6,2.5 c-3.4-1.6-6.7-2.9-9.9-4l0,0c-15.4-5.5-28.6-6-39.3-1.5S15.2,57.6,8.6,72.1C4.8,82.3,4.8,86.6,5.1,88.2c0.4,2.2,1.1,3.4,1.6,3.6 c0.4,0,2-0.1,5.9-1.3c2.6-0.8,7.1-2.4,13.5-4.6c0.1,0,0.1,0,0.2-0.1c14.7-4.6,28-5.3,39.6-2.2c5.2,1.4,9.8,4,13.8,7.6 c3,2.7,6.3,6.7,10.2,12.1c0,0,0,0.1,0.1,0.1c2,3,5.6,8.2,10.7,15.6c4.9,6.6,10.2,12.8,15.6,18.5c8.6,8.9,16.5,16.2,23.5,21.8 c10,7.9,20.6,14.4,31.5,19.2C180.6,182.7,192.9,188,207.7,194.3z M238.9,109.2L238.9,109.2L238.9,109.2z"></path></g></g><g transform="matrix(2.9166107177734375, 0, 0, 2.9166107177734375, 1463.45,1961.9)"><g transform="matrix(1, 0, 0, 1, 0, 0)"><path fill="#C75151" d="M6,171.3c-0.5,6.9-0.5,13.1-0.1,18.6c2.6,12.2,6.7,22.6,12.1,31.2c5.5,8.6,11.4,12.6,17.6,11.8
					c6.3-0.7,12.6-4.2,18.9-10.5c6.2-6.3,11.5-13.7,15.8-22.4c0.7-1.3,1.3-2.6,1.9-3.9c3.8-8.9,6.7-17.2,8.7-24.7
					c3.3-18,5.3-35.2,6.1-51.5c0.2-5.5,0.3-9,0.3-10.5l-73.1-5C14.5,121.4,11.8,143.8,6,171.3z"></path><path d="M34.3,238.1c-7.5,0-14.3-4.8-20.3-14.2C8.2,214.8,3.9,203.7,1.1,191c0-0.2-0.1-0.4-0.1-0.6c-0.5-5.7-0.5-12.3,0-19.4
				c0-0.2,0-0.4,0.1-0.7c5.6-27.1,8.4-49.3,8.1-65.9c0-2.8,2.2-5,4.9-5.1c0,0,0,0,0.1,0c2.7,0,5,2.2,5,4.9
				c0.2,17.3-2.6,40.1-8.3,67.8c-0.4,6.4-0.5,12.1,0,17.2c2.5,11.4,6.3,21.3,11.4,29.3c4.3,6.8,8.6,10,12.8,9.5
				c5.1-0.6,10.5-3.7,15.9-9.1c5.8-5.8,10.8-13,14.9-21.1c0,0,0-0.1,0-0.1c0.6-1.2,1.2-2.4,1.7-3.6c3.7-8.6,6.5-16.6,8.4-23.8
				c3.3-17.6,5.3-34.6,5.9-50.7c0.2-5.4,0.3-8.9,0.3-10.4c0.1-2.8,2.3-4.9,5.1-4.9c2.8,0.1,5,2.3,4.9,5.1c0,1.6-0.1,5-0.4,10.6
				c-0.7,16.6-2.8,34.2-6.1,52.3c0,0.1-0.1,0.3-0.1,0.4c-2.1,7.7-5.1,16.3-8.9,25.4c-0.6,1.4-1.3,2.9-2,4.2
				c-4.5,9.1-10.1,17.1-16.7,23.7c-7,7.1-14.4,11.1-21.8,12C35.7,238,35,238.1,34.3,238.1z"></path></g></g><g transform="matrix( 2.9166107177734375, 0, 0, 2.9166107177734375, 1463.45,1961.9)"><g transform="matrix( 1, 0, 0, 1, 0,0) "><path d="M34.3,238.1c-7.5,0-14.3-4.8-20.3-14.2C8.2,214.8,3.9,203.7,1.1,191c0-0.2-0.1-0.4-0.1-0.6c-0.5-5.7-0.5-12.3,0-19.4     c0-0.2,0-0.4,0.1-0.7c5.6-27.1,8.4-49.3,8.1-65.9c0-2.8,2.2-5,4.9-5.1c2.8,0,5,2.2,5.1,4.9c0.2,17.3-2.6,40.1-8.3,67.8     c-0.4,6.4-0.5,12.1,0,17.2c2.5,11.4,6.3,21.3,11.4,29.3c4.3,6.8,8.6,10,12.8,9.5c5.1-0.6,10.5-3.7,15.9-9.1     c5.8-5.8,10.8-13,14.9-21.1v-0.1c0.6-1.2,1.2-2.4,1.7-3.6c3.7-8.6,6.5-16.6,8.4-23.8c3.3-17.6,5.3-34.6,5.9-50.7     c0.2-5.4,0.3-8.9,0.3-10.4c0.1-2.7,2.3-4.9,5-4.9h0.1c2.8,0.1,5,2.3,4.9,5.1c0,1.6-0.1,5-0.4,10.6c-0.7,16.6-2.8,34.2-6.1,52.3     c0,0.1-0.1,0.3-0.1,0.4c-2.1,7.7-5.1,16.3-8.9,25.4c-0.6,1.4-1.3,2.9-2,4.2c-4.5,9.1-10.1,17.1-16.7,23.7     c-7,7.1-14.4,11.1-21.8,12C35.7,238,35,238.1,34.3,238.1z"></path></g></g><g transform="matrix(2.9166107177734375, 0, 0, 2.9166107177734375, 1181.8,460.1)"><g transform="matrix(1, 0, 0, 1, 0, 0)"><path fill="#C75151" d="M-52.8,174.8c-8.8,2.5-18.1,5.6-28.1,9.5c-24,9.4-47.4,21.1-70,35.1c-23.6,14.6-42.5,29.4-56.6,44.4      c-15.5,16.5-23.2,31.3-23.2,44.5c0,8.5,2.9,14.8,8.7,18.9c4.9,3.5,12.1,5.6,21.8,6.2c6.2,0.4,15.6,0.3,28.2-0.4      c13.5-0.7,22.9-1,28.3-0.8c21.2,1,42.3,5.9,63.3,14.8c7.8,3.4,14.7,6.8,20.7,10.4c-1.6-4.8-3.1-9.7-4.5-14.7      c-2.3-10.3-4.6-20.8-6.7-31.4c-5.7-27.9-6-55.4-0.8-82.4C-67.9,209.6-61.6,191.5-52.8,174.8z"></path><path d="M-59.7,362.5c-0.9,0-1.7-0.2-2.5-0.7c-5.8-3.4-12.6-6.8-20.2-10.1c-20.3-8.6-41-13.4-61.5-14.4     c-5.2-0.2-14.6,0.1-27.8,0.8c-13,0.7-22.4,0.8-28.9,0.4c-10.7-0.7-18.7-3.1-24.4-7.2c-7.2-5.1-10.8-12.8-10.8-23     c0-14.6,8.1-30.2,24.6-47.9c14.3-15.3,33.7-30.5,57.6-45.3c22.8-14.2,46.6-26.1,70.8-35.6c10.1-3.9,19.7-7.2,28.6-9.7     c2.7-0.7,5.4,0.8,6.2,3.5c0.7,2.7-0.8,5.4-3.5,6.2c-8.6,2.4-17.9,5.6-27.7,9.4c-23.6,9.2-46.9,20.9-69.2,34.7     c-23.1,14.3-41.8,29-55.5,43.6c-14.5,15.5-21.9,29.3-21.9,41c0,6.8,2.2,11.7,6.6,14.8c0,0,0,0,0,0c4.1,2.9,10.5,4.7,19.2,5.3     c5.9,0.4,15.2,0.3,27.6-0.4c13.8-0.7,23.2-1,28.8-0.8c0,0,0,0,0,0c21.7,1,43.6,6.1,65,15.1c0,0,0,0,0,0c8,3.4,15.1,7,21.3,10.7     c2.4,1.4,3.2,4.5,1.8,6.8C-56.3,361.6-57.9,362.5-59.7,362.5z"></path></g></g><g transform="matrix( 2.9166107177734375, 0, 0, 2.9166107177734375, 1181.8,460.1) "><g transform="matrix( 1, 0, 0, 1, 0,0) "><path d="M-59.7,362.5c-0.9,0-1.7-0.2-2.5-0.7c-5.8-3.4-12.6-6.8-20.2-10.1c-20.3-8.6-41-13.4-61.5-14.4 c-5.2-0.2-14.6,0.1-27.8,0.8c-13,0.7-22.4,0.8-28.9,0.4c-10.7-0.7-18.7-3.1-24.4-7.2c-7.2-5.1-10.8-12.8-10.8-23 c0-14.6,8.1-30.2,24.6-47.9c14.3-15.3,33.7-30.5,57.6-45.3c22.8-14.2,46.6-26.1,70.8-35.6c10.1-3.9,19.7-7.2,28.6-9.7 c2.7-0.7,5.4,0.8,6.2,3.5c0.7,2.7-0.8,5.4-3.5,6.2c-8.6,2.4-17.9,5.6-27.7,9.4c-23.6,9.2-46.9,20.9-69.2,34.7 c-23.1,14.3-41.8,29-55.5,43.6c-14.5,15.5-21.9,29.3-21.9,41c0,6.8,2.2,11.7,6.6,14.8l0,0c4.1,2.9,10.5,4.7,19.2,5.3 c5.9,0.4,15.2,0.3,27.6-0.4c13.8-0.7,23.2-1,28.8-0.8l0,0c21.7,1,43.6,6.1,65,15.1l0,0c8,3.4,15.1,7,21.3,10.7 c2.4,1.4,3.2,4.5,1.8,6.8C-56.3,361.6-57.9,362.5-59.7,362.5z"></path></g></g><g transform="matrix(2.9166107177734375, 0, 0, 2.9166107177734375, 956.5,1516.1)"><g transform="matrix(1, 0, 0, 1, 0, 0)"><path fill="#C75151" d="M156.9,0.3c-0.5,0-1-0.1-1.5-0.1c0.3,0,0.5,0.1,0.8,0.1C156.5,0.3,156.7,0.3,156.9,0.3L156.9,0.3L156.9,0.3 M155.4,0.2H155c-0.3,0-0.7,0-1,0c0.7,0.1,1.5,0.1,2.2,0.1C156,0.2,155.7,0.2,155.4,0.2 M209,15.8c-1.3-0.7-2.7-1.3-4.1-2      c-15-7.2-31.1-11.7-48.1-13.4h-0.1c-0.2,0-0.4-0.1-0.7-0.1c-0.7,0-1.5-0.1-2.2-0.1l-2.6,0c-0.2,0-0.4,0-0.6,0h-1.4      c-0.3,0-0.7,0-1,0H145c-0.3,0-0.7,0-1.1,0c0,0-0.1,0-0.1,0h-1.2c-0.4,0-0.8,0-1.1,0c-1.1,0-2.1,0.1-3.2,0.1c-0.3,0-0.6,0-0.9,0      c-0.1,0-0.2,0-0.3,0c-13.3,1.3-26,4.3-38.2,8.9c-3.6,1.4-7.1,2.9-10.6,4.6C44.2,34.9,16.9,69,6.4,115.9      c-3.5,24-5.6,47.3-6.4,70.2c-0.4,22.1,3.9,40.8,13,56c18.4,30.8,56.3,47.6,113.6,50.2c2.7,0.1,5.4,0.2,8.2,0.3      c0.5,0,1.1,0,1.6,0l5.4,0.1c0.3,0,0.7,0,1.1,0h0.9c0.1,0,0.1,0,0.1,0h1.1c0.3,0,0.5,0,0.8,0h2.9c0.2,0,0.4,0,0.5,0      c0,0,0.1,0,0.2,0c0.6,0,1.3,0,1.9,0l5.4-0.1c0.5,0,1.1,0,1.6,0c2.4-0.1,4.8-0.1,7.1-0.2l20.4-1.6l19.2-3      c0.9-0.2,1.8-0.3,2.6-0.5c6.9-1.5,13.4-3.3,19.4-5.4c24.4-8.4,42-21.7,52.9-39.8c9.1-15.2,13.5-33.9,13.1-56      c-0.8-22.8-2.9-46.2-6.4-70.2C276.7,70.4,250.7,37,209,15.8z"></path><path d="M151.4,297.8h-9.5c0,0-0.1,0-0.1,0l-5.4-0.1h-1.6c0,0-0.1,0-0.1,0c-2.8-0.1-5.6-0.2-8.3-0.3c-29.2-1.4-53.8-6.4-73.2-15 c-19.8-8.8-34.8-21.5-44.5-37.7C-0.7,228.7-5.4,209-4.9,186c0,0,0-0.1,0-0.1c0.8-22.9,2.9-46.7,6.4-70.7c0-0.1,0-0.2,0.1-0.4 C7,90.7,16.8,69.6,30.9,52C45,34.5,63.6,20.1,86.2,9.2c3.6-1.7,7.3-3.3,11-4.7c12.5-4.8,25.7-7.9,39.4-9.2c0,0,0.1,0,0.1,0l0.3,0 c0.3,0,0.6,0,0.8-0.1c0.1,0,0.2,0,0.3,0l3-0.1c0.4,0,0.9-0.1,1.4-0.1h8.2c0.3,0,0.7,0,1,0.1l2.4,0.1c0.1,0,0.1,0,0.2,0 c0.3,0,0.7,0,1,0l0.4,0c0,0,0.1,0,0.1,0c0,0,0.1,0,0.1,0c0.3,0,0.6,0.1,0.9,0.1c0,0,0,0,0,0c0.2,0,0.5,0.1,0.7,0.1 c17.5,1.8,34.2,6.4,49.7,13.9c1.4,0.7,2.8,1.4,4.2,2.1c21.4,10.9,39,25.2,52.4,42.4c13.4,17.2,22.8,37.8,28,61.1 c0,0.1,0.1,0.2,0.1,0.4c3.5,24,5.7,47.8,6.4,70.7c0,0,0,0.1,0,0.1c0.4,23-4.2,42.7-13.8,58.7c-11.4,19.2-30.1,33.3-55.6,42 c-6.2,2.1-13,4-20,5.5c-0.9,0.2-1.8,0.4-2.6,0.5c-0.1,0-0.1,0-0.2,0l-19.2,3c-0.1,0-0.3,0-0.4,0l-20.3,1.6c-0.1,0-0.2,0-0.2,0 c-2.4,0.1-4.8,0.1-7.2,0.2c0,0-0.1,0-0.1,0h-1.6L151.4,297.8C151.5,297.8,151.5,297.8,151.4,297.8z M141.9,287.8h9.5l5.4-0.1 c0,0,0.1,0,0.1,0h1.5c2.3-0.1,4.7-0.1,7-0.2l20-1.6l19-3c0.8-0.2,1.6-0.3,2.4-0.5c6.6-1.4,13-3.2,18.8-5.2 c23.2-7.9,40.1-20.6,50.3-37.7c8.6-14.4,12.7-32.3,12.4-53.4c-0.8-22.4-2.9-45.8-6.3-69.4c-4.9-21.8-13.7-41-26.1-57 c-12.5-16-29-29.4-49-39.6c-1.3-0.7-2.6-1.3-4-2c-14.4-6.9-30-11.3-46.3-12.9c-0.1,0-0.3,0-0.4,0c-0.1,0-0.3,0-0.4-0.1 c-0.7,0-1.3-0.1-2-0.1L151.2,5c-0.2,0-0.4,0-0.6,0h-8c-0.2,0-0.4,0-0.6,0c-0.1,0-0.2,0-0.3,0l-3.1,0.1c-0.2,0-0.5,0-0.8,0.1 l-0.3,0c-12.8,1.2-25.1,4.1-36.8,8.6c-3.5,1.3-6.9,2.8-10.3,4.4c-21.3,10.2-38.7,23.7-51.8,40c-13.1,16.3-22.3,36-27.3,58.6 c-3.4,23.6-5.6,46.9-6.3,69.4c-0.4,21.1,3.8,39,12.3,53.4c8.6,14.4,22.1,25.8,39.9,33.7c18.3,8.1,41.7,12.9,69.6,14.2 c2.6,0.1,5.3,0.2,8,0.3h1.5c0,0,0.1,0,0.1,0L141.9,287.8z"></path></g></g><g transform="matrix(2.9166107177734375, 0, 0, 2.9166107177734375, 956.5,1516.1)"><g transform="matrix(1, 0, 0, 1, 0, 0)"><g fill="#FFF1D6"><path d="M156.9,0.4L156.9,0.4c-0.6-0.1-1.3-0.2-1.9-0.2c-0.3,0-0.7,0-1,0c0.7,0.1,1.5,0.1,2.2,0.1 C156.5,0.3,156.7,0.3,156.9,0.4z"></path><path d="M254.5,175c0-0.2,0-0.3,0.1-0.5c0-1,0.1-2,0.1-3.1c0-1,0-2-0.1-3.1V50.4C241.5,35.6,225,23.3,205,13.8 c-15-7.2-31.1-11.7-48.1-13.4c-0.2,0-0.5-0.1-0.8-0.1c-0.7,0-1.5-0.1-2.2-0.1l-2.6,0c-0.2,0-0.4,0-0.6,0h-1.4c-0.3,0-0.7,0-1,0 h-0.2v164.6c-0.2,2.2-0.2,4.5-0.2,6.8c0,2.1,0.1,4.1,0.2,6.2c1.1,15.6,6.2,29.1,15.4,40.4c10.5,12.9,23.1,19.4,37.8,19.4 c14.7,0,27.3-6.5,37.7-19.4C248.7,206,253.9,191.7,254.5,175z"></path></g><path d="M151.4,297.8h-9.5c0,0-0.1,0-0.1,0l-5.4-0.1h-1.6c0,0-0.1,0-0.1,0c-2.8-0.1-5.6-0.2-8.3-0.3c-29.2-1.4-53.8-6.4-73.2-15 c-19.8-8.8-34.8-21.5-44.5-37.7C-0.7,228.7-5.4,209-4.9,186c0,0,0-0.1,0-0.1c0.8-22.9,2.9-46.7,6.4-70.7c0-0.1,0-0.2,0.1-0.4 C7,90.7,16.8,69.6,30.9,52C45,34.5,63.6,20.1,86.2,9.2c3.6-1.7,7.3-3.3,11-4.7c12.5-4.8,25.7-7.9,39.4-9.2c0,0,0.1,0,0.1,0l0.3,0 c0.3,0,0.5,0,0.8-0.1c0.1,0,0.2,0,0.3,0l3-0.1c0.4,0,0.9-0.1,1.4-0.1h8.2c0.3,0,0.7,0,1,0.1l2.4,0.1c0.1,0,0.1,0,0.2,0 c0.3,0,0.6,0,1,0c0.5,0,1,0.1,1.5,0.1c0,0,0,0,0,0c0.2,0,0.4,0.1,0.7,0.1c17.5,1.8,34.2,6.4,49.7,13.9c1.4,0.7,2.8,1.4,4.2,2.1 c21.4,10.9,39,25.2,52.4,42.4c13.4,17.2,22.8,37.8,28,61.1c0,0.1,0.1,0.2,0.1,0.4c3.5,24,5.7,47.8,6.4,70.7c0,0,0,0.1,0,0.1 c0.4,23-4.2,42.7-13.8,58.7c-11.4,19.2-30.1,33.3-55.6,42c-6.2,2.1-13,4-20,5.5c-0.9,0.2-1.8,0.4-2.6,0.5c-0.1,0-0.1,0-0.2,0 l-19.2,3c-0.1,0-0.3,0-0.4,0l-20.3,1.6c-0.1,0-0.2,0-0.2,0c-2.4,0.1-4.8,0.1-7.2,0.2c0,0-0.1,0-0.1,0h-1.6L151.4,297.8 C151.5,297.8,151.5,297.8,151.4,297.8z M141.9,287.8h9.5l5.4-0.1c0,0,0.1,0,0.1,0h1.5c2.3-0.1,4.7-0.1,7-0.2l20-1.6l19-3 c0.8-0.2,1.6-0.3,2.4-0.5c6.6-1.4,13-3.2,18.8-5.2c23.2-7.9,40.1-20.6,50.3-37.7c8.6-14.4,12.7-32.3,12.4-53.4 c-0.8-22.4-2.9-45.8-6.3-69.4c-4.9-21.8-13.7-41-26.1-57c-12.5-16-29-29.4-49-39.6c-1.3-0.7-2.6-1.3-4-2 c-14.4-6.9-30-11.3-46.3-12.9c-0.1,0-0.3,0-0.4,0c-0.1,0-0.3,0-0.4-0.1c-0.7,0-1.3-0.1-2-0.1L151.2,5c-0.2,0-0.4,0-0.6,0h-8 c-0.2,0-0.4,0-0.6,0c-0.1,0-0.2,0-0.3,0l-3.1,0.1c-0.2,0-0.5,0-0.8,0.1l-0.3,0c-12.8,1.2-25.1,4.1-36.8,8.6 c-3.5,1.3-6.9,2.8-10.3,4.4c-21.3,10.2-38.7,23.7-51.8,40c-13.1,16.3-22.3,36-27.3,58.6c-3.4,23.6-5.6,46.9-6.3,69.4 c-0.4,21.1,3.8,39,12.3,53.4c8.6,14.4,22.1,25.8,39.9,33.7c18.3,8.1,41.7,12.9,69.6,14.2c2.6,0.1,5.3,0.2,8,0.3h1.5 c0,0,0.1,0,0.1,0L141.9,287.8z"></path></g></g><g transform="matrix(2.9166107177734375, 0, 0, 2.9166107177734375, 1042.6,1961.9)"><g transform="matrix(1, 0, 0, 1, 0, 0)"><path fill="#C75151" d="M6,171.3c-0.5,6.9-0.5,13.1-0.1,18.6c2.6,12.2,6.7,22.6,12.1,31.2c5.5,8.6,11.4,12.6,17.6,11.8 c6.3-0.7,12.6-4.2,18.9-10.5c6.2-6.3,11.5-13.7,15.8-22.4c0.7-1.3,1.3-2.6,1.9-3.9c3.8-8.9,6.7-17.2,8.7-24.7 c3.3-18,5.3-35.2,6.1-51.5c0.2-5.5,0.3-9,0.3-10.5l-73.1-5C14.5,121.4,11.8,143.8,6,171.3z"></path><path d="M34.3,238.1c-7.5,0-14.3-4.8-20.3-14.2C8.2,214.8,3.9,203.7,1.1,191c0-0.2-0.1-0.4-0.1-0.6c-0.5-5.7-0.5-12.3,0-19.4 c0-0.2,0-0.4,0.1-0.7c5.6-27.1,8.4-49.3,8.1-65.9c0-2.8,2.2-5,4.9-5.1c2.8,0,5,2.2,5.1,4.9c0.2,17.3-2.6,40.1-8.3,67.8 c-0.4,6.4-0.5,12.1,0,17.2c2.5,11.4,6.3,21.3,11.4,29.3c4.3,6.8,8.6,10,12.8,9.5c5.1-0.6,10.5-3.7,15.9-9.1 c5.8-5.8,10.8-13,14.9-21.1c0,0,0-0.1,0-0.1c0.6-1.2,1.2-2.4,1.7-3.6c3.7-8.6,6.5-16.6,8.4-23.8c3.3-17.6,5.3-34.6,5.9-50.7 c0.2-5.4,0.3-8.9,0.3-10.4c0.1-2.7,2.3-4.9,5-4.9c0,0,0.1,0,0.1,0c2.8,0.1,5,2.3,4.9,5.1c0,1.6-0.1,5-0.4,10.6 c-0.7,16.6-2.8,34.2-6.1,52.3c0,0.1-0.1,0.3-0.1,0.4c-2.1,7.7-5.1,16.3-8.9,25.4c-0.6,1.4-1.3,2.9-2,4.2 c-4.5,9.1-10.1,17.1-16.7,23.7c-7,7.1-14.4,11.1-21.8,12C35.7,238,35,238.1,34.3,238.1z"></path></g></g><g transform="matrix( 2.9166107177734375, 0, 0, 2.9166107177734375, 1042.6,1961.9) "><g transform="matrix( 1, 0, 0, 1, 0,0) "><path d="M34.3,238.1c-7.5,0-14.3-4.8-20.3-14.2C8.2,214.8,3.9,203.7,1.1,191c0-0.2-0.1-0.4-0.1-0.6c-0.5-5.7-0.5-12.3,0-19.4     c0-0.2,0-0.4,0.1-0.7c5.6-27.1,8.4-49.3,8.1-65.9c0-2.8,2.2-5,4.9-5.1c2.8,0,5,2.2,5.1,4.9c0.2,17.3-2.6,40.1-8.3,67.8     c-0.4,6.4-0.5,12.1,0,17.2c2.5,11.4,6.3,21.3,11.4,29.3c4.3,6.8,8.6,10,12.8,9.5c5.1-0.6,10.5-3.7,15.9-9.1     c5.8-5.8,10.8-13,14.9-21.1v-0.1c0.6-1.2,1.2-2.4,1.7-3.6c3.7-8.6,6.5-16.6,8.4-23.8c3.3-17.6,5.3-34.6,5.9-50.7     c0.2-5.4,0.3-8.9,0.3-10.4c0.1-2.7,2.3-4.9,5-4.9h0.1c2.8,0.1,5,2.3,4.9,5.1c0,1.6-0.1,5-0.4,10.6c-0.7,16.6-2.8,34.2-6.1,52.3     c0,0.1-0.1,0.3-0.1,0.4c-2.1,7.7-5.1,16.3-8.9,25.4c-0.6,1.4-1.3,2.9-2,4.2c-4.5,9.1-10.1,17.1-16.7,23.7     c-7,7.1-14.4,11.1-21.8,12C35.7,238,35,238.1,34.3,238.1z"></path></g></g><g transform="matrix(2.9166107177734375, 0, 0, 2.9166107177734375, 1002.9,1719.3)"><g transform="matrix(1, 0, 0, 1, 0, 0)"><path fill="#C75151" d="M15.6,43.5c-6,16-10,32.3-12.1,49.1c-0.7,5.4-1.3,10.8-1.9,16.1c-0.9,6.2,0.5,13.1,4.2,20.7 c3.4,6,8,12,13.5,17.8c5.6,5.9,10.8,8.9,15.5,8.9c4.8,0,10-2.7,15.8-8.1c5.4-5,9.4-9.5,11.9-13.5c4-6.2,6.3-12.2,7-18.1 c1.2-14,3.8-28.1,7.7-42.3c3.9-14.2,12.5-29.8,25.9-46.8L49.7,0C33.7,10.8,22.4,25.3,15.6,43.5z"></path><path d="M34.8,161.1c-6.2,0-12.5-3.4-19.1-10.4C9.8,144.5,5,138.2,1.4,131.8c-0.1-0.1-0.1-0.2-0.1-0.3 c-4.2-8.5-5.7-16.4-4.7-23.5c0.6-5.3,1.2-10.8,1.9-16.1c2.2-17.1,6.4-34,12.4-50.2c7.1-19,19.2-34.5,36-45.8 c2.3-1.5,5.4-0.9,6.9,1.3c1.5,2.3,0.9,5.4-1.3,6.9c-15,10.2-25.9,24-32.3,41.1c-5.8,15.5-9.8,31.7-11.9,48 c-0.7,5.3-1.3,10.8-1.9,16.1c0,0.1,0,0.1,0,0.2c-0.8,5.1,0.5,11,3.7,17.6c3.2,5.6,7.5,11.2,12.8,16.8c4.5,4.8,8.6,7.3,11.9,7.3 c0,0,0,0,0,0c3.4,0,7.7-2.3,12.4-6.7c5-4.7,8.8-8.9,11.2-12.6c3.5-5.5,5.7-10.9,6.3-15.9c1.3-14.2,3.9-28.7,7.8-43.1 c4-14.8,13-31.2,26.8-48.6c1.7-2.2,4.9-2.5,7-0.8c2.2,1.7,2.5,4.9,0.8,7c-12.9,16.4-21.3,31.6-25,45.1 c-3.8,13.9-6.3,27.9-7.5,41.5c0,0.1,0,0.1,0,0.2c-0.8,6.6-3.4,13.4-7.8,20.2c-2.9,4.4-7,9.2-12.8,14.5 C47.3,158,41,161,34.8,161.1C34.8,161,34.8,161.1,34.8,161.1z"></path></g></g><g transform="matrix(2.9166107177734375, 0, 0, 2.9166107177734375, 1002.9,1719.3)"><g transform="matrix( 1, 0, 0, 1, 0,0) "><path d="M34.8,161.1c-6.2,0-12.5-3.4-19.1-10.4C9.8,144.5,5,138.2,1.4,131.8c-0.1-0.1-0.1-0.2-0.1-0.3 c-4.2-8.5-5.7-16.4-4.7-23.5c0.6-5.3,1.2-10.8,1.9-16.1c2.2-17.1,6.4-34,12.4-50.2c7.1-19,19.2-34.5,36-45.8 c2.3-1.5,5.4-0.9,6.9,1.3c1.5,2.3,0.9,5.4-1.3,6.9c-15,10.2-25.9,24-32.3,41.1c-5.8,15.5-9.8,31.7-11.9,48 c-0.7,5.3-1.3,10.8-1.9,16.1c0,0.1,0,0.1,0,0.2c-0.8,5.1,0.5,11,3.7,17.6c3.2,5.6,7.5,11.2,12.8,16.8c4.5,4.8,8.6,7.3,11.9,7.3 c0,0,0,0,0,0c3.4,0,7.7-2.3,12.4-6.7c5-4.7,8.8-8.9,11.2-12.6c3.5-5.5,5.7-10.9,6.3-15.9c1.3-14.2,3.9-28.7,7.8-43.1 c4-14.8,13-31.2,26.8-48.6c1.7-2.2,4.9-2.5,7-0.8c2.2,1.7,2.5,4.9,0.8,7c-12.9,16.4-21.3,31.6-25,45.1 c-3.8,13.9-6.3,27.9-7.5,41.5c0,0.1,0,0.1,0,0.2c-0.8,6.6-3.4,13.4-7.8,20.2c-2.9,4.4-7,9.2-12.8,14.5 C47.3,158,41,161,34.8,161.1C34.8,161,34.8,161.1,34.8,161.1z"></path></g></g><g transform="matrix(2.9166107177734375, 0, 0, 2.9166107177734375, 848.15,585.65)"><g transform="matrix(1, 0, 0, 1, 0, 0)"><path fill="#C75151" d="M496.9,137.5L496.9,137.5c-4-4.2-8.4-8-13.1-11.3c-16.3-11.4-34.2-19.6-53.8-24.5c-4.8-1.9-10-4-15.4-6.4 c-14.6-6.5-29.4-14.1-44.1-22.8c-3.6-2.1-8.3-5.4-14.1-9.8c-7.4-6.5-15.2-12.6-23.2-18.2c-14.9-10.4-30.9-19.2-47.9-26.5 c-7.8-3.3-15.6-6.1-23.5-8.6c-22.1-6.8-44.9-10.3-68.4-10.6c-30.4-0.4-60.3,3.4-89.4,11.5c-9.2,3.1-18.1,7.3-26.7,12.4 C58.3,34.1,42.4,49.4,29.5,68.5C16.6,87.7,7.8,109.2,3.3,132.8c-1.7,8.8-2.8,17.6-3.2,26.4c-0.8,16,0.5,32.2,3.8,48.6 c2,9.6,4,19,6.1,28.4C32.4,315.9,78.9,363.2,149.6,378c41.3,8.6,90.9,6.2,148.7-7.3l4.2-1.2c33-6.6,64.5-17.2,94.7-31.6 c6.5-3.2,13.1-6.3,19.7-9.4c17.5-9,33.6-20.3,48.1-33.9c12.7-11.8,24-24.8,34-39c12.5-18.6,19.6-37.1,21.2-55.6 c0.3-2.8,0.4-5.6,0.4-8.4c0-4.7-0.5-9.3-1.4-13.8c0-0.1,0-0.1,0-0.1c-2-9.8-6.2-19.1-12.5-28.2c-0.1-0.2-0.2-0.3-0.3-0.5 C503.7,145.1,500.5,141.3,496.9,137.5z"></path><path d="M201.8,388c-19,0-36.9-1.7-53.3-5.2c-36.2-7.6-66.6-23.7-90.4-48c-23.7-24.1-41.5-56.9-52.8-97.3c0-0.1,0-0.2-0.1-0.2 c-2.1-9.4-4.2-19-6.2-28.5c-3.4-16.7-4.7-33.4-3.9-49.8c0.4-9.1,1.5-18.2,3.3-27.2C3,107.7,12.1,85.4,25.4,65.8 c13.2-19.7,29.8-35.6,49.3-47.3c0,0,0,0,0,0c8.8-5.3,18.1-9.6,27.6-12.8c0.1,0,0.2-0.1,0.3-0.1c29.5-8.2,60.1-12.1,90.9-11.7 c23.9,0.3,47.4,4,69.8,10.9c8.1,2.5,16.1,5.4,24,8.7c17.2,7.3,33.6,16.4,48.8,27c8.1,5.6,16,11.8,23.5,18.4 c5.5,4.2,10.1,7.4,13.5,9.4c14.6,8.5,29.2,16.1,43.7,22.5c5.2,2.3,10.3,4.4,14.9,6.2c20,5,38.5,13.5,55.2,25.1 c5,3.5,9.6,7.5,13.8,11.9l0,0c0,0,0.1,0.1,0.1,0.1c3.7,3.9,7.1,7.9,9.9,12c0.1,0.2,0.3,0.4,0.4,0.6c6.7,9.5,11.2,19.6,13.3,30 c0,0.1,0,0.2,0.1,0.3c1,4.8,1.5,9.7,1.5,14.7c0,3-0.1,6-0.4,8.9c-1.7,19.2-9.2,38.7-22.1,57.9c0,0,0,0.1-0.1,0.1 c-10.1,14.5-21.8,27.8-34.7,39.8c-14.8,13.8-31.4,25.5-49.3,34.7c-0.1,0-0.1,0.1-0.2,0.1c-6.6,3.1-13.2,6.2-19.6,9.4c0,0,0,0,0,0 c-30.4,14.6-62.6,25.3-95.7,32l-4.1,1.1c0,0-0.1,0-0.1,0c-29.1,6.8-56.5,10.8-81.4,12.1C212.5,387.9,207.1,388,201.8,388z  M15,235c10.9,38.8,27.8,70,50.3,92.9c11.2,11.4,24.1,21,38.2,28.4c14.2,7.5,30,13.1,47.2,16.7c20.1,4.2,42.6,5.7,66.9,4.5 c24.3-1.2,51.1-5.2,79.6-11.8l4.2-1.1c0.1,0,0.2,0,0.3-0.1c32.4-6.5,63.9-17.1,93.5-31.3c6.5-3.2,13.1-6.3,19.7-9.4 c17-8.8,32.8-19.9,47-33.1c12.4-11.5,23.6-24.3,33.3-38.2c12-17.8,18.8-35.6,20.4-53.1c0.2-2.7,0.4-5.4,0.4-8 c0-4.3-0.4-8.6-1.3-12.8c0-0.1,0-0.2,0-0.2c-1.9-9-5.8-17.8-11.7-26.2c-0.1-0.1-0.1-0.2-0.2-0.3c0-0.1-0.1-0.1-0.1-0.2 c-2.6-3.7-5.6-7.3-9-10.9l0,0c0,0-0.1-0.1-0.1-0.1c-3.7-3.9-7.9-7.5-12.3-10.7c-15.7-11-33.2-19-52.1-23.7 c-0.2-0.1-0.4-0.1-0.6-0.2c-4.9-1.9-10.2-4.1-15.7-6.5c-14.7-6.6-29.8-14.3-44.6-23c-3.8-2.3-8.6-5.6-14.6-10.1 c-0.1-0.1-0.2-0.1-0.3-0.2c-7.3-6.4-14.9-12.4-22.8-17.8c-14.6-10.2-30.4-18.9-46.9-26c-7.6-3.2-15.3-6-23.1-8.4 c-21.5-6.6-44.1-10.1-67-10.5c-29.8-0.4-59.3,3.4-87.9,11.3c-8.8,3-17.4,7-25.6,11.9C61.6,38,46.1,52.9,33.6,71.3 c-12.5,18.5-21,39.5-25.4,62.4c-1.6,8.5-2.7,17.2-3.1,25.8c-0.8,15.5,0.5,31.4,3.7,47.3C10.8,216.2,12.9,225.7,15,235z"></path></g></g><g transform="matrix(2.9166107177734375, 0, 0, 2.9166107177734375, 848.15,585.65)"><g transform="matrix(1, 0, 0, 1, 0, 0)"><g fill="#FFF1D6"><path d="M508,196c-0.5-0.7-1-1.4-1.5-2.1c-15-18.8-44.7-28.2-88.9-28.2c-19.9,0-41.8,3.3-65.6,10 c-28.2,7.9-49.9,18.5-64.9,31.7c-11.5,10.1-23.2,23.9-35.2,41.2c-7.1,10.3-11.3,16.4-12.6,18.2c-4.6,6.1-8.9,11-12.9,14.5 c-8.8,7.7-21,14.8-36.7,21.5c-12.4,5.3-26.4,10-41.9,14.2c-14.2,3.8-42.2,9.2-84,16.4c2.4,2.4,4.9,4.7,7.5,6.9 c21.6,18.7,47.7,31.2,78.3,37.6c41.3,8.6,90.9,6.2,148.7-7.3l4.2-1.2c33-6.6,64.5-17.2,94.7-31.6c6.5-3.2,13.1-6.3,19.7-9.4 c17.5-9,33.6-20.3,48.1-33.9c12.7-11.8,24-24.8,34-39c8.5-12.7,14.6-25.3,18.1-37.9c-0.1-0.5-0.2-0.9-0.3-1.3 C515.1,208.6,512.2,201.8,508,196z"></path></g><path d="M201.8,388c-19,0-36.9-1.7-53.3-5.2c-36.2-7.6-66.6-23.7-90.4-48c-23.7-24.1-41.5-56.9-52.8-97.3c0-0.1,0-0.2-0.1-0.2     c-2.1-9.4-4.2-19-6.2-28.5c-3.4-16.7-4.7-33.4-3.9-49.8c0.4-9.1,1.5-18.2,3.3-27.2C3,107.7,12.1,85.4,25.4,65.8     c13.2-19.7,29.8-35.6,49.3-47.3c0,0,0,0,0,0c8.8-5.3,18.1-9.6,27.6-12.8c0.1,0,0.2-0.1,0.3-0.1c29.5-8.2,60.1-12.1,90.9-11.7     c23.9,0.3,47.4,4,69.8,10.9c8.1,2.5,16.1,5.4,24,8.7c17.2,7.3,33.6,16.4,48.8,27c8.1,5.6,16,11.8,23.5,18.4     c5.5,4.2,10.1,7.4,13.5,9.4c14.6,8.5,29.2,16.1,43.7,22.5c5.2,2.3,10.3,4.4,14.9,6.2c20,5,38.5,13.5,55.2,25.1     c5,3.5,9.6,7.5,13.8,11.9l0,0c0,0,0.1,0.1,0.1,0.1c3.7,3.9,7.1,7.9,9.9,12c0.1,0.2,0.3,0.4,0.4,0.6c6.7,9.5,11.2,19.6,13.3,30     c0,0.1,0,0.2,0.1,0.3c1,4.8,1.5,9.7,1.5,14.7c0,3-0.1,6-0.4,8.9c-1.7,19.2-9.2,38.7-22.1,57.9c0,0,0,0.1-0.1,0.1     c-10.1,14.5-21.8,27.8-34.7,39.8c-14.8,13.8-31.4,25.5-49.3,34.7c-0.1,0-0.1,0.1-0.2,0.1c-6.6,3.1-13.2,6.2-19.6,9.4c0,0,0,0,0,0     c-30.4,14.6-62.6,25.3-95.7,32l-4.1,1.1c0,0-0.1,0-0.1,0c-29.1,6.8-56.5,10.8-81.4,12.1C212.5,387.9,207.1,388,201.8,388z      M15,235c10.9,38.8,27.8,70,50.3,92.9c11.2,11.4,24.1,21,38.2,28.4c14.2,7.5,30,13.1,47.2,16.7c20.1,4.2,42.6,5.7,66.9,4.5     c24.3-1.2,51.1-5.2,79.6-11.8l4.2-1.1c0.1,0,0.2,0,0.3-0.1c32.4-6.5,63.9-17.1,93.5-31.3c6.5-3.2,13.1-6.3,19.7-9.4     c17-8.8,32.8-19.9,47-33.1c12.4-11.5,23.6-24.3,33.3-38.2c12-17.8,18.8-35.6,20.4-53.1c0.2-2.7,0.4-5.4,0.4-8     c0-4.3-0.4-8.6-1.3-12.8c0-0.1,0-0.2,0-0.2c-1.9-9-5.8-17.8-11.7-26.2c-0.1-0.1-0.1-0.2-0.2-0.3c0-0.1-0.1-0.1-0.1-0.2     c-2.6-3.7-5.6-7.3-9-10.9l0,0c0,0-0.1-0.1-0.1-0.1c-3.7-3.9-7.9-7.5-12.3-10.7c-15.7-11-33.2-19-52.1-23.7     c-0.2-0.1-0.4-0.1-0.6-0.2c-4.9-1.9-10.2-4.1-15.7-6.5c-14.7-6.6-29.8-14.3-44.6-23c-3.8-2.3-8.6-5.6-14.6-10.1     c-0.1-0.1-0.2-0.1-0.3-0.2c-7.3-6.4-14.9-12.4-22.8-17.8c-14.6-10.2-30.4-18.9-46.9-26c-7.6-3.2-15.3-6-23.1-8.4     c-21.5-6.6-44.1-10.1-67-10.5c-29.8-0.4-59.3,3.4-87.9,11.3c-8.8,3-17.4,7-25.6,11.9C61.6,38,46.1,52.9,33.6,71.3     c-12.5,18.5-21,39.5-25.4,62.4c-1.6,8.5-2.7,17.2-3.1,25.8c-0.8,15.5,0.5,31.4,3.7,47.3C10.8,216.2,12.9,225.7,15,235z"></path></g></g><svg width="3000" height="3000" viewBox="0 0 3000 3000" fill="none" xmlns="http://www.w3.org/2000/svg"><path d="M1226.18 994.633C1221.86 972.595 1213.06 955.003 1199.21 941.967C1185.01 928.701 1170.33 923.555 1154.88 926.586C1139.14 929.673 1127.49 939.982 1119.64 957.57C1111.17 974.984 1109.38 994.653 1113.7 1016.69C1117.97 1038.44 1127 1055.69 1141.19 1068.96C1155.38 1082.22 1170.06 1087.37 1185.8 1084.28C1201.26 1081.25 1212.91 1070.94 1220.75 1053.36C1228.65 1036.05 1230.44 1016.38 1226.18 994.633ZM1184.17 954.723C1188.35 954.796 1192.06 957.04 1195.24 961.17C1198.43 965.301 1200.01 970.34 1200.51 975.89C1200.72 981.496 1199.5 985.896 1196.68 989.718C1193.81 993.253 1190.26 994.842 1186.08 994.769C1181.91 994.696 1178.2 992.451 1175.29 988.265C1172.11 984.135 1170.52 979.095 1170.09 973.831C1169.88 968.225 1171.04 963.539 1173.91 960.004C1176.67 955.896 1180.23 954.308 1184.17 954.723Z" fill="black"></path><path d="M1195.53 961.114C1192.34 956.984 1188.63 954.739 1184.46 954.666C1180.51 954.251 1177.02 956.126 1174.14 959.661C1171.33 963.483 1169.82 967.939 1170.32 973.489C1170.81 979.039 1172.34 983.792 1175.53 987.922C1178.71 992.053 1182.42 994.297 1186.31 994.426C1190.49 994.499 1194.04 992.911 1196.91 989.375C1199.73 985.554 1200.95 981.154 1200.74 975.548C1200.3 970.284 1198.43 965.3 1195.53 961.114Z" fill="white"></path><path d="M1176.94 1099.69C1160.86 1099.58 1145.33 1093.11 1131.08 1079.56C1114.72 1064.34 1104.22 1044.11 1099.39 1019.5C1094.51 994.597 1096.82 971.555 1105.99 951.627C1115.91 929.471 1131.46 916.317 1151.78 912.332C1172.1 908.347 1191.47 914.654 1209.03 931.422C1225.1 946.697 1235.6 966.927 1240.49 991.827C1245.31 1016.44 1243.23 1039.14 1233.83 1059.41C1223.91 1081.57 1208.64 1094.66 1188.32 1098.65C1184.6 1099.38 1180.54 1099.88 1176.94 1099.69ZM1163.52 940.346C1161.75 940.396 1159.69 940.503 1157.68 940.896C1157.68 940.896 1157.68 940.896 1157.4 940.952C1143.09 943.758 1136.41 955.173 1132.66 963.338C1125.74 978.07 1124.48 994.366 1128.24 1013.54C1131.94 1032.43 1139.21 1046.76 1151.24 1058.07C1158.14 1064.45 1168.63 1072.49 1182.94 1069.69C1196.96 1066.94 1203.64 1055.52 1207.33 1047.07C1207.33 1047.07 1207.33 1047.07 1207.28 1046.78C1214.2 1032.05 1215.46 1015.76 1211.81 997.153C1208.05 977.978 1200.73 963.364 1189.04 952.281C1183.23 946.883 1174.79 940.216 1163.52 940.346Z" fill="black"></path><path d="M1196.37 1165.43C1174.33 1169.75 1156.29 1176.26 1142.01 1185.3C1127.73 1194.35 1121.41 1203.02 1123.04 1211.32C1124.66 1219.62 1133.8 1225.26 1150.43 1228.23C1167.06 1231.21 1186.23 1230.43 1208.26 1226.11C1230.02 1221.84 1248.06 1215.33 1262.33 1206.29C1276.67 1197.53 1283.28 1188.81 1281.59 1180.22C1279.91 1171.64 1270.84 1166.28 1253.92 1163.36C1237.57 1160.32 1218.4 1161.11 1196.37 1165.43Z" fill="#CF80A6"></path><path d="M1631.87 915.074C1627.55 893.036 1618.75 875.443 1604.9 862.407C1590.71 849.141 1576.03 843.996 1560.57 847.027C1544.83 850.114 1533.18 860.423 1525.33 878.011C1516.86 895.424 1515.07 915.094 1519.39 937.132C1523.66 958.883 1532.69 976.134 1546.88 989.4C1561.07 1002.67 1575.76 1007.81 1591.5 1004.72C1606.95 1001.69 1618.89 991.328 1626.73 973.74C1634.35 956.495 1636.14 936.825 1631.87 915.074ZM1590.15 875.108C1594.33 875.18 1598.04 877.425 1601.22 881.555C1604.41 885.685 1605.99 890.725 1606.49 896.275C1606.7 901.881 1605.48 906.281 1602.66 910.103C1599.79 913.638 1596.24 915.227 1592.06 915.154C1587.89 915.081 1584.18 912.836 1581.27 908.65C1578.09 904.52 1576.5 899.48 1576.07 894.216C1575.86 888.61 1577.02 883.924 1579.89 880.389C1582.37 876.337 1585.92 874.748 1590.15 875.108Z" fill="black"></path><path d="M1601.22 881.555C1598.04 877.425 1594.33 875.18 1590.15 875.107C1586.21 874.692 1582.71 876.567 1579.84 880.102C1577.02 883.924 1575.52 888.38 1576.01 893.93C1576.5 899.48 1578.03 904.233 1581.22 908.363C1584.41 912.494 1588.12 914.738 1592.01 914.867C1596.18 914.94 1599.73 913.352 1602.61 909.816C1605.42 905.995 1606.64 901.595 1606.43 895.989C1605.94 890.438 1604.13 885.741 1601.22 881.555Z" fill="white"></path><path d="M1582.63 1020.13C1566.56 1020.02 1551.02 1013.55 1536.77 1000C1520.42 984.782 1509.91 964.551 1505.08 939.938C1500.2 915.038 1502.52 891.996 1511.69 872.068C1521.61 849.912 1537.16 836.757 1557.48 832.773C1577.8 828.788 1597.16 835.095 1614.72 851.862C1630.79 867.137 1641.3 887.368 1646.18 912.268C1651.01 936.881 1648.92 959.581 1639.52 979.851C1629.6 1002.01 1614.34 1015.11 1594.02 1019.09C1590.29 1019.82 1586.23 1020.32 1582.63 1020.13ZM1569.21 860.787C1567.44 860.837 1565.38 860.944 1563.38 861.337C1563.38 861.337 1563.38 861.337 1563.09 861.393C1548.78 864.199 1542.1 875.614 1538.35 883.779C1531.43 898.51 1530.17 914.807 1533.93 933.983C1537.64 952.872 1544.9 967.199 1556.93 978.512C1563.83 984.887 1574.32 992.934 1588.63 990.128C1602.66 987.378 1609.33 975.963 1613.03 967.512C1613.03 967.512 1613.03 967.512 1612.97 967.225C1619.89 952.494 1621.15 936.197 1617.5 917.594C1613.74 898.418 1606.42 883.805 1594.74 872.722C1588.92 867.324 1580.48 860.657 1569.21 860.787Z" fill="black"></path><path d="M1602.34 1085.82C1580.31 1090.14 1562.27 1096.65 1547.99 1105.69C1533.71 1114.73 1527.39 1123.4 1529.02 1131.7C1530.64 1140 1539.77 1145.64 1556.41 1148.62C1573.04 1151.6 1592.21 1150.81 1614.24 1146.49C1635.99 1142.23 1654.32 1135.66 1668.6 1126.62C1682.93 1117.86 1689.54 1109.14 1687.86 1100.55C1686.17 1091.96 1677.1 1086.61 1660.18 1083.69C1643.26 1080.76 1624.1 1081.55 1602.34 1085.82Z" fill="#CF80A6"></path><path d="M1910.01 1359.36C1877.01 1359.25 1845.99 1349.55 1817.26 1330.19C1789.55 1311.52 1769.08 1287.29 1756.87 1258.17C1753.64 1250.78 1757 1242.1 1764.45 1239.16C1771.85 1235.94 1780.52 1239.3 1783.46 1246.75C1793.76 1270.59 1810.42 1290.52 1833.34 1305.96C1865.83 1327.85 1900.18 1334.83 1938.54 1327.35C1976.9 1319.87 2006.1 1300.51 2028 1268.01C2043.73 1245.04 2051.68 1220.31 2052.27 1194.35C2052.48 1186.28 2058.97 1179.96 2066.75 1180.23L2067.03 1180.18C2075.1 1180.39 2081.42 1186.88 2081.21 1194.94C2080.54 1226.57 2070.67 1256.72 2052 1284.43C2025.96 1323.09 1989.63 1347.1 1944.12 1355.98C1932.67 1358.21 1921.28 1359.24 1910.01 1359.36Z" fill="black"></path></svg><svg viewBox="0 0 3000 3000"><path fill-rule="evenodd" clip-rule="evenodd" d="M2727.8,2633.6L2727.8,2633.6c9.4,11.9,15,27,15,43.3c0,16.4-5.8,31.9-15.4,43.8l-0.8,1l-0.2-1.3  c-0.2-1.1-0.4-2.2-0.7-3.4c-4.8-21.4-20.5-39.8-46.4-54.6c-17.5-10-27.5-22.1-30.1-35.8c-1.7-8.9-0.4-17.8,2-25.4  c2.4-7.6,6.1-14,9.1-17.8l10.1-12.4c1.8-2.2,5.1-2.2,6.8,0L2727.8,2633.6L2727.8,2633.6z M2743.7,2621.2L2743.7,2621.2l-67.4-83.3  c-1.3-1.6-3.7-1.6-5,0l-67.4,83.3v0l-0.2,0.3c-12.4,15.6-19.8,35.3-19.8,56.8c0,50.1,40.3,90.7,90,90.7s90-40.6,90-90.7  c0-21.5-7.4-41.3-19.8-56.8L2743.7,2621.2L2743.7,2621.2z M2619.9,2633.4l6-7.5l0.2,1.4c0.2,1.1,0.3,2.2,0.5,3.3  c3.9,20.7,17.9,37.9,41.2,51.3c20.3,11.6,32.1,25,35.5,39.7c1.4,6.1,1.7,12.2,1.1,17.4l0,0.3l-0.3,0.1c-9.1,4.5-19.4,7.1-30.3,7.1  c-38.1,0-69-31.2-69-69.6C2604.7,2660.4,2610.4,2645.3,2619.9,2633.4L2619.9,2633.4z"></path></svg></svg>