<svg version="1.1" xmlns="http://www.w3.org/2000/svg" xmlns:xlink="http://www.w3.org/1999/xlink" x="0px" y="0px" viewBox="0 0 3000 3000"><ellipse opacity="0.3" cx="1400.4" cy="2615.2" rx="472.8" ry="130.6"></ellipse><g transform="matrix(-2.9166107177734375, 0, 0, 2.9166107177734375, 1880.95,1719.3)"><g transform="matrix(1, 0, 0, 1, 0, 0)"><path fill="#C75151" d="M15.6,43.5c-6,16-10,32.3-12.1,49.1c-0.7,5.4-1.3,10.8-1.9,16.1c22.8-2.2,45.5,0.3,68,7.7
        c1.2-14,3.8-28.1,7.7-42.3c3.9-14.2,12.5-29.8,25.9-46.8L49.7,0C33.7,10.8,22.4,25.3,15.6,43.5z"></path><path fill="#4e4943" d="M74.5,118.4c-1.4-1.4-3.1-2.4-5-3c-22.6-7.4-45.2-9.9-68-7.7c-0.5,6.7-0.9,13.5-1.2,20.5
    C0,130-0.1,131.8,0,133.8c0.3,9.3,3.8,17.1,10.5,23.4c6.8,6.4,14.9,9.4,24.2,9.1c9.3-0.3,17.2-3.8,23.5-10.7
    c3.6-3.7,6.2-8,7.9-12.8c3.6-0.4,6.6-1.9,8.9-4.4c2.6-2.9,3.9-6.4,3.8-10.2C78.9,124.4,77.4,121.1,74.5,118.4z"></path></g><path d="M33.7,172.4c0.4,0,0.8,0,1.3,0c10.6-0.3,19.7-4.4,27-12.3c3.3-3.5,6-7.5,7.9-11.8c3.5-0.9,6.5-2.7,9-5.4c0,0,0,0,0,0
    c3.5-3.9,5.2-8.5,5.1-13.7c0,0,0,0,0,0c-0.2-5.3-2.2-9.7-6-13.3c-1-0.9-2-1.7-3.1-2.4c1.3-12.5,3.7-25.3,7.2-38.1
    c3.7-13.5,12.1-28.7,25-45.1c1.7-2.2,1.3-5.3-0.8-7c-2.2-1.7-5.3-1.3-7,0.8C85.5,41.6,76.5,57.9,72.4,72.7
    c-3.9,14.5-6.5,29-7.8,43.1c0,0.4,0,0.8,0,1.2c0.1,0.7,0.4,1.4,0.8,2c0.4,0.6,0.9,1.1,1.6,1.5c0.3,0.2,0.7,0.4,1.1,0.5
    c1.1,0.4,2.1,1,3,1.9c0,0,0.1,0.1,0.1,0.1c1.9,1.7,2.8,3.7,2.9,6.3c0.1,2.6-0.7,4.8-2.5,6.7c-1.5,1.6-3.4,2.5-5.8,2.8
    c-1.9,0.2-3.5,1.5-4.2,3.3c-1.5,4.1-3.7,7.8-6.8,11c0,0,0,0,0,0c-5.5,5.9-12.1,8.9-20,9.1c-8,0.2-14.8-2.3-20.6-7.8
    c-5.8-5.5-8.7-12-9-19.9c0,0,0-0.1,0-0.1c-0.1-1.6,0-3.2,0.2-4.6c0-0.2,0-0.3,0-0.5c0.4-6.9,0.8-13.7,1.2-20.3
    c0.6-5.3,1.2-10.7,1.9-16c2.1-16.3,6.1-32.4,11.9-48c6.4-17.1,17.2-30.9,32.3-41.1c2.3-1.5,2.9-4.7,1.3-6.9
    c-1.5-2.3-4.7-2.9-6.9-1.3C30.1,7.2,18,22.7,10.9,41.7C4.8,58,0.7,74.8-1.5,91.9c-0.7,5.4-1.3,10.9-1.9,16.2c0,0,0,0.1,0,0.1
    c0,0.1,0,0.1,0,0.2c-0.5,6.6-0.9,13.4-1.2,20.3c-0.3,2-0.4,4.1-0.3,6.3c0.3,10.6,4.4,19.6,12.1,26.9
    C14.6,168.9,23.5,172.4,33.7,172.4z"></path></g><g transform="matrix(-2.9166107177734375, 0, 0, 2.9166107177734375, 1880.95,1719.3)"><g transform="matrix( 1, 0, 0, 1, 0,0) "><g fill="#D5D2EA"><path d="M4.4,96.9c-0.5,0.1-1,0.1-1.5,0.2c0,0.1,0,0.3-0.1,0.4c-0.4,3.1-0.7,6.3-1.1,9.4c-0.1,0.6-0.1,1.2-0.2,1.8 c14.9,9.1,37.6,11.7,68,7.7c0.3-3.1,0.6-6.3,1-9.4c-8.3-0.6-17.2-2.4-26.7-5.2c-12.6-3.7-23.1-5.5-31.5-5.5 C10.3,96.3,7.7,96.5,4.4,96.9 M53.3,48.9c-2.3-0.4-5.2-0.6-8.6-0.6c-1.6,0-3.7,0.3-6.4,0.9c-2.7,0.5-5.9,0.8-9.6,0.8 C22,50,17.5,49.4,15,48.1c-0.3-0.2-0.6-0.4-0.8-0.6c-0.1,0.2-0.1,0.3-0.2,0.5c-2.3,6.7-4.3,13.5-6,20.3 c-0.1,0.2-0.1,0.5-0.2,0.7c1.9,0.2,3.7,0.2,5.4,0.2c2.4,0,6.2-0.3,11.5-1s8.1-1.1,8.6-1.1c3.7,0,8.5,0.5,14.4,1.6 c5.3,1,8.7,1.8,10.2,2.5c0.8,0.4,2.7,1.5,5.6,3.5c3.1,2.1,5.8,3.7,8.1,4.9c1.3,0.7,2.6,1.2,3.8,1.8c0.1-0.3,0.2-0.7,0.2-1 c0.3-1.4,0.7-2.8,1.1-4.2c0.2-0.5,0.3-1.1,0.4-1.6c0.1-0.2,0.1-0.4,0.2-0.5c1.2-4.4,2.8-8.9,4.9-13.5c-0.6-0.2-1.1-0.3-1.7-0.5 c-6.5-2-13-4.8-19.4-8.4C58.7,50.3,56.2,49.4,53.3,48.9 M48.2,1c-0.2,0.2-0.5,0.4-0.8,0.5c0.5-0.3,0.9-0.7,1.4-1 c-0.1,0.1-0.2,0.1-0.3,0.2C48.5,0.8,48.4,0.9,48.2,1 M81.9,25.8c6.5,2.9,12.2,5.2,17.1,6.8c1.3-1.8,2.7-3.6,4.2-5.4L49.7,0 c-0.1,0.1-0.3,0.2-0.5,0.2c-0.1,0.1-0.1,0.1-0.2,0.2v0.1c0,0-0.1,0-0.1,0.1c-0.5,0.3-0.9,0.7-1.4,1l-14,12.3 c-0.2,0.2-0.4,0.5-0.6,0.7c-1.4,1.6-2.8,3.3-4.1,4.9c-0.1,0.2-0.2,0.3-0.3,0.5c-0.1,0.2-0.2,0.3-0.4,0.5c1,0,2.9,0,5.5,0 c2.5,0,6.5-0.3,12-1s9.3-1,11.6-1C62.6,18.5,70.9,20.9,81.9,25.8z"></path></g><path d="M33.7,172.4c0.4,0,0.8,0,1.3,0c10.6-0.3,19.7-4.4,27-12.3c3.3-3.5,6-7.5,7.9-11.8c3.5-0.9,6.5-2.7,9-5.4c0,0,0,0,0,0
    c3.5-3.9,5.2-8.5,5.1-13.7c0,0,0,0,0,0c-0.2-5.3-2.2-9.7-6-13.3c-1-0.9-2-1.7-3.1-2.4c1.3-12.5,3.7-25.3,7.2-38.1
    c3.7-13.5,12.1-28.7,25-45.1c1.7-2.2,1.3-5.3-0.8-7c-2.2-1.7-5.3-1.3-7,0.8C85.5,41.6,76.5,57.9,72.4,72.7
    c-3.9,14.5-6.5,29-7.8,43.1c0,0.4,0,0.8,0,1.2c0.1,0.7,0.4,1.4,0.8,2c0.4,0.6,0.9,1.1,1.6,1.5c0.3,0.2,0.7,0.4,1.1,0.5
    c1.1,0.4,2.1,1,3,1.9c0,0,0.1,0.1,0.1,0.1c1.9,1.7,2.8,3.7,2.9,6.3c0.1,2.6-0.7,4.8-2.5,6.7c-1.5,1.6-3.4,2.5-5.8,2.8
    c-1.9,0.2-3.5,1.5-4.2,3.3c-1.5,4.1-3.7,7.8-6.8,11c0,0,0,0,0,0c-5.5,5.9-12.1,8.9-20,9.1c-8,0.2-14.8-2.3-20.6-7.8
    c-5.8-5.5-8.7-12-9-19.9c0,0,0-0.1,0-0.1c-0.1-1.6,0-3.2,0.2-4.6c0-0.2,0-0.3,0-0.5c0.4-6.9,0.8-13.7,1.2-20.3
    c0.6-5.3,1.2-10.7,1.9-16c2.1-16.3,6.1-32.4,11.9-48c6.4-17.1,17.2-30.9,32.3-41.1c2.3-1.5,2.9-4.7,1.3-6.9
    c-1.5-2.3-4.7-2.9-6.9-1.3C30.1,7.2,18,22.7,10.9,41.7C4.8,58,0.7,74.8-1.5,91.9c-0.7,5.4-1.3,10.9-1.9,16.2c0,0,0,0.1,0,0.1
    c0,0.1,0,0.1,0,0.2c-0.5,6.6-0.9,13.4-1.2,20.3c-0.3,2-0.4,4.1-0.3,6.3c0.3,10.6,4.4,19.6,12.1,26.9
    C14.6,168.9,23.5,172.4,33.7,172.4z"></path></g></g><g transform="matrix(2.9166107177734375, 0, 0, 2.9166107177734375, 1463.45,1961.9)"><g transform="matrix(1, 0, 0, 1, 0, 0)"><path fill="#C75151" d="M6,171.3L6,171.3c23.5,6.5,48.4,6.5,74.9,0c3.3-18,5.3-35.2,6.1-51.5c0.2-5.5,0.3-9,0.3-10.5l-73.1-5
    C14.5,121.4,11.8,143.8,6,171.3z"></path><path fill="#4e4943" d="M6,170.4c-1.5,7.7-3.1,15.6-5,23.7c-0.7,2.6-1,5.3-1,8.1c0,8.8,3.7,16.3,11,22.4c7.3,6.3,16.2,9.4,26.6,9.4
    h43.2c1.8,0,3.5-0.2,5.2-0.4c5.4-0.7,10.3-2.4,14.7-5.1c1.9-1.1,3.7-2.4,5.4-3.9c7.4-6.1,11-13.5,11-22.4
    c0-8.8-3.7-16.4-11-22.6c-5.8-4.8-12.5-7.8-20.1-8.9c-1.6-0.2-3.3-0.4-5.1-0.4C54.5,176.9,29.5,176.9,6,170.4z"></path></g><path d="M80.8,240H37.6C26,240,16,236.4,7.8,229.4c-8.5-7-12.8-15.8-12.8-26.2c0-3.2,0.4-6.3,1.2-9.3c1.8-7.9,3.5-15.6,4.9-23.2
c0-0.1,0-0.3,0.1-0.4c5.6-27.1,8.4-49.3,8.1-65.9c0-2.8,2.2-5,4.9-5.1c0,0,0,0,0.1,0c2.7,0,5,2.2,5,4.9
c0.2,17.3-2.6,40.1-8.3,67.8c0,0.1,0,0.2-0.1,0.3c-1.5,7.7-3.2,15.7-5,23.8c0,0.1,0,0.1,0,0.2c-0.6,2.2-0.9,4.5-0.9,6.8
c0,7.3,3,13.4,9.2,18.5c0,0,0,0,0.1,0.1c6.5,5.5,14.1,8.2,23.3,8.2h43.2c1.6,0,3.1-0.1,4.6-0.4c0,0,0.1,0,0.1,0
c4.7-0.6,8.9-2,12.7-4.4c0,0,0.1-0.1,0.1-0.1c1.6-0.9,3.1-2,4.6-3.3c0.1-0.1,0.1-0.1,0.2-0.1c6.2-5.1,9.2-11.2,9.2-18.5
c0-7.3-3-13.5-9.3-18.8c-5.1-4.3-10.9-6.8-17.6-7.7c-1.4-0.2-2.9-0.3-4.4-0.4c-0.2,0-0.3,0-0.5,0c-0.6-0.1-1.1-0.2-1.6-0.5
c-0.7-0.3-1.3-0.8-1.7-1.4c-0.5-0.6-0.8-1.2-1-2c-0.1-0.5-0.2-1.1-0.1-1.7c0-0.2,0-0.3,0.1-0.5c3.3-17.6,5.3-34.7,6-50.8
c0.2-5.4,0.3-8.9,0.3-10.4c0.1-2.8,2.3-4.9,5.1-4.9c2.8,0.1,5,2.3,4.9,5.1c0,1.6-0.1,5-0.4,10.6c-0.6,14.9-2.4,30.6-5.2,46.8
c8.4,1.2,16,4.6,22.5,9.9c0,0,0,0,0,0c8.5,7.2,12.8,16.1,12.8,26.4c0,10.3-4.3,19.1-12.8,26.1c-1.9,1.7-4,3.2-6.1,4.4
c-5,3.1-10.6,5-16.6,5.8C84.9,239.8,82.9,240,80.8,240C80.9,240,80.9,240,80.8,240z"></path></g><g transform="matrix(2.9166107177734375, 0, 0, 2.9166107177734375, 1463.45,1961.9)"><g transform="matrix( 1, 0, 0, 1, 0,0) "><g fill="#D5D2EA"><path d="M78.6,126.6c-0.7,0.4-3.6,0.9-8.7,1.5c-5,0.6-8.6,0.9-10.7,0.9c-4.2,0-8-1.1-11.7-3.3 c-3.6-2.3-8.1-3.4-13.5-3.4c-3.6,0-8.8,1.1-15.8,3.4c-1.8,0.6-3.5,1.1-5.1,1.5c-0.5,5.3-1.2,11-2.1,16.9 c-0.3,1.7-0.5,3.4-0.8,5.1c0.3,0,0.5,0,0.8-0.1c3.2-0.3,7.7-1,13.4-1.9c8.9-1.5,13.5-2.2,13.9-2.2c3,0,7.5,0.9,13.5,2.6 c6,1.8,11.7,2.7,17.2,2.7c5.2,0,10.5-1.2,15.8-3.5c0.2-1.8,0.4-3.5,0.6-5.2c0.6-6,1.1-12,1.4-17.8 C83.7,124.5,81,125.4,78.6,126.6z"></path></g><path d="M80.8,240H37.6C26,240,16,236.4,7.8,229.4c-8.5-7-12.8-15.8-12.8-26.2c0-3.2,0.4-6.3,1.2-9.3c1.8-7.9,3.5-15.6,4.9-23.2
c0-0.1,0-0.3,0.1-0.4c5.6-27.1,8.4-49.3,8.1-65.9c0-2.8,2.2-5,4.9-5.1c0,0,0,0,0.1,0c2.7,0,5,2.2,5,4.9
c0.2,17.3-2.6,40.1-8.3,67.8c0,0.1,0,0.2-0.1,0.3c-1.5,7.7-3.2,15.7-5,23.8c0,0.1,0,0.1,0,0.2c-0.6,2.2-0.9,4.5-0.9,6.8
c0,7.3,3,13.4,9.2,18.5c0,0,0,0,0.1,0.1c6.5,5.5,14.1,8.2,23.3,8.2h43.2c1.6,0,3.1-0.1,4.6-0.4c0,0,0.1,0,0.1,0
c4.7-0.6,8.9-2,12.7-4.4c0,0,0.1-0.1,0.1-0.1c1.6-0.9,3.1-2,4.6-3.3c0.1-0.1,0.1-0.1,0.2-0.1c6.2-5.1,9.2-11.2,9.2-18.5
c0-7.3-3-13.5-9.3-18.8c-5.1-4.3-10.9-6.8-17.6-7.7c-1.4-0.2-2.9-0.3-4.4-0.4c-0.2,0-0.3,0-0.5,0c-0.6-0.1-1.1-0.2-1.6-0.5
c-0.7-0.3-1.3-0.8-1.7-1.4c-0.5-0.6-0.8-1.2-1-2c-0.1-0.5-0.2-1.1-0.1-1.7c0-0.2,0-0.3,0.1-0.5c3.3-17.6,5.3-34.7,6-50.8
c0.2-5.4,0.3-8.9,0.3-10.4c0.1-2.8,2.3-4.9,5.1-4.9c2.8,0.1,5,2.3,4.9,5.1c0,1.6-0.1,5-0.4,10.6c-0.6,14.9-2.4,30.6-5.2,46.8
c8.4,1.2,16,4.6,22.5,9.9c0,0,0,0,0,0c8.5,7.2,12.8,16.1,12.8,26.4c0,10.3-4.3,19.1-12.8,26.1c-1.9,1.7-4,3.2-6.1,4.4
c-5,3.1-10.6,5-16.6,5.8C84.9,239.8,82.9,240,80.8,240C80.9,240,80.9,240,80.8,240z"></path></g></g><g transform="matrix(2.9166107177734375, 0, 0, 2.9166107177734375, 956.5,1516.1)"><g transform="matrix(1, 0, 0, 1, 0, 0)"><g><path fill="#C75151" d="M293.3,186.1c-0.8-22.8-2.9-46.2-6.4-70.2c-5.8-25.7-16.5-47.5-32.3-65.5C241.5,35.6,225,23.3,205,13.8
					c-15-7.2-31.1-11.7-48.1-13.4h-0.1c-0.2,0-0.4-0.1-0.7-0.1c-0.7,0-1.5-0.1-2.2-0.1l-2.6,0c-0.2,0-0.4,0-0.6,0h-1.4
					c-0.3,0-0.7,0-1,0H145c-0.3,0-0.7,0-1.1,0c0,0-0.1,0-0.1,0h-1.2c-0.4,0-0.8,0-1.1,0c-1.1,0-2.1,0.1-3.2,0.1
					c-0.4,0-0.8,0.1-1.2,0.1c-17.2,1.7-33.5,6.2-48.8,13.5C44.2,34.9,16.9,69,6.4,115.9c-3.5,24-5.6,47.3-6.4,70.2
					c-1.3,69,43.7,104.5,134.8,106.6c0.5,0,1.1,0,1.6,0l5.4,0.1c0.3,0,0.7,0,1.1,0h0.9c0.1,0,0.1,0,0.1,0h1.1c0.3,0,0.5,0,0.8,0h2.9
					c0.2,0,0.4,0,0.5,0c0,0,0.1,0,0.2,0c0.6,0,1.3,0,1.9,0l5.4-0.1c0.5,0,1.1,0,1.6,0C249.6,290.6,294.5,255.1,293.3,186.1z"></path></g></g><g><path d="M151.4,297.8h-9.5c0,0-0.1,0-0.1,0l-5.4-0.1h-1.6c0,0-0.1,0-0.1,0c-23.1-0.5-43.6-3.2-60.9-8
				c-17.6-4.9-32.4-12-44.1-21.3C6,249.7-5.6,222-4.9,186c0,0,0-0.1,0-0.1c0.8-22.9,2.9-46.7,6.4-70.7c0-0.1,0-0.2,0.1-0.4
				C7,90.7,16.8,69.6,30.9,52C45,34.5,63.6,20.1,86.2,9.2c15.7-7.6,32.7-12.3,50.4-14c0,0,0.1,0,0.1,0c0.4,0,0.8-0.1,1.1-0.1
				c0.1,0,0.2,0,0.3,0l3-0.1c0.4,0,0.9-0.1,1.4-0.1h8.2c0.3,0,0.7,0,1,0.1l2.4,0.1c0.1,0,0.1,0,0.2,0c0.3,0,0.6,0,1,0
				c0.5,0,1,0.1,1.5,0.1c0,0,0,0,0,0c0.2,0,0.5,0.1,0.7,0.1c17.5,1.8,34.2,6.4,49.7,13.9c20.5,9.8,37.7,22.6,51.1,37.9
				c16.3,18.5,27.6,41.3,33.5,67.7c0,0.1,0.1,0.2,0.1,0.4c3.5,24,5.7,47.8,6.4,70.7c0,0,0,0.1,0,0.1c0.6,36-11,63.7-34.7,82.4
				c-11.7,9.3-26.6,16.4-44.1,21.3c-17.3,4.8-37.8,7.5-60.9,8c0,0-0.1,0-0.1,0h-1.6L151.4,297.8
				C151.5,297.8,151.5,297.8,151.4,297.8z M141.9,287.8h9.5l5.4-0.1c0,0,0.1,0,0.1,0h1.5c44.2-1,77.5-10.2,99-27.1
				c10.5-8.3,18.4-18.7,23.5-30.9c5.2-12.3,7.6-27,7.3-43.4c-0.8-22.4-2.9-45.8-6.3-69.4c-5.6-24.7-16.1-45.9-31.2-63.1
				c-12.6-14.3-28.7-26.2-48-35.5c-14.4-6.9-30-11.3-46.3-12.9c-0.1,0-0.3,0-0.4,0c-0.1,0-0.3,0-0.4-0.1c-0.7,0-1.3-0.1-2-0.1
				L151.2,5c-0.2,0-0.4,0-0.6,0h-8c-0.2,0-0.4,0-0.6,0c-0.1,0-0.2,0-0.3,0l-3.1,0.1c-0.3,0-0.7,0.1-1.1,0.1c-16.5,1.6-32.4,6-47,13
				c-21.3,10.2-38.7,23.7-51.8,40c-13.1,16.3-22.3,36-27.3,58.6c-3.4,23.6-5.6,46.9-6.3,69.4c-0.3,16.4,2.2,31.1,7.3,43.4
				c5.1,12.2,13,22.6,23.5,30.9c21.5,17,54.8,26.1,99,27.1h1.5c0,0,0.1,0,0.1,0L141.9,287.8z"></path></g></g><g transform="matrix(2.9166107177734375, 0, 0, 2.9166107177734375, 956.5,1516.1)"><g transform="matrix(1, 0, 0, 1, 0, 0)"><g fill="#D5D2EA"><path d="M139.8,223.8c-3.1,0.4-6,0.6-8.6,0.6c-9,0-20.4-2.3-34-6.9c-7.2-2.4-12.2-4-15-4.8 c-5.6-1.4-10.7-2.1-15.2-2.1c-8.7,0-19,0.9-31,2.7S17.1,216,15.4,216c-1,0-5-0.7-12.1-2c-0.3-0.1-0.6-0.1-0.9-0.1 c0.3,1.2,0.5,2.4,0.8,3.5c2.3,9.5,5.8,18.1,10.6,25.9c5.7,0.8,10.9,1.1,15.8,1.1c4.8,0,13-0.9,24.5-2.7s18.2-2.8,20.3-2.8 c7,0,17.9,1.9,32.8,5.8c13.1,3.4,23.6,5.3,31.4,5.6c1.1,0.1,2.1,0.1,3.1,0.1c7.7,0,17.6-2.2,29.7-6.6c6.7-2.5,11-4,13-4.6 c4.6-1.4,8.5-2.1,11.8-2.1s7.1,0.5,11.1,1.5c1.4,0.3,5.2,1.4,11.5,3.4c4.7,1.4,9.2,2.5,13.6,3.2c5.7,1,11.1,1.6,16.1,1.6 c4.1,0,14.6-1.5,31.5-4.6c5.7-9.4,9.5-20.1,11.5-32.2c0-0.2,0-0.3,0.1-0.5c-3.3,1-7,1.9-11.1,2.9c-12.6,3-20.8,4.9-24.4,5.6 c-3.6,0.7-7.1,1-10.5,1c-5.1,0-12.5-1.3-22.2-3.9c-9.7-2.6-17.1-3.9-22.2-3.9c-3.5,0-7.6,0.4-12.2,1.2 c-6.3,1.1-13.8,2.9-22.4,5.5C156.2,220.9,147.2,222.9,139.8,223.8 M112.4,185C112.4,185.1,112.4,185.1,112.4,185 c-0.1,0.1-0.2,0.2-0.2,0.2c-0.1,0-0.1,0.1-0.1,0.1c0,0.1,0,0.1-0.1,0.1c-0.1,0.1-0.1,0.1-0.1,0.1c-0.1,0.1-0.1,0.1-0.1,0.2 c-0.1,0-0.1,0-0.1,0.1s-0.1,0.1-0.2,0.2v0.1c0,0.1,0,0.1,0,0.2c0,0.1,0,0.1-0.1,0.2v0.1c0,0.1,0,0.1,0,0.2c0,0.1,0,0.1,0,0.2 v0.1c-0.1,0.1-0.1,0.1-0.1,0.2v0.1c0,0.1,0,0.1,0,0.2c-0.1,0.1-0.1,0.1-0.1,0.1v0.1c0,0.1,0,0.1,0,0.1c0,0.1,0,0.1,0,0.2l0,0 c0,0.1,0,0.1,0,0.2v0.1c0,0,0,0.1,0,0.2c0,0.1,0,0.1,0,0.1v0.1c0,0.1,0,0.1,0,0.1c0,0.1,0,0.1,0,0.2v0.1c0,0.1,0,0.1,0,0.2 c0,0.1,0,0.1,0.1,0.1v0.1c0,0.1,0,0.1,0.1,0.2c0,0.1,0,0.1,0,0.1c0,0.1,0,0.1,0,0.2c0,0.1,0,0.1,0,0.2c0.1,0,0.1,0,0.1,0.1 c0,0,0,0.1,0,0.2v0.1c0.1,0,0.1,0.1,0.1,0.2c0,0.1,0,0.1,0,0.1v0.1c0.1,0.1,0.1,0.1,0.1,0.2c0.1,0,0.1,0.1,0.2,0.1 s0.1,0,0.2,0.1v0.1l0.1,0.1c0.1,0,0.1,0.1,0.1,0.1c0.1,0.1,0.1,0.1,0.1,0.2c0,0.1,0.1,0.1,0.2,0.1c0.1,0.1,0.1,0.1,0.1,0.2 c0,0,0,0.1,0.1,0.1s0.1,0,0.1,0.1c0.1,0,0.1,0.1,0.1,0.1c0.1,0.1,0.2,0.1,0.2,0.1c0.1,0,0.2,0.1,0.2,0.1 c0.1,0.1,0.2,0.1,0.3,0.1c0.1,0.1,0.2,0.1,0.2,0.1c0.2,0,0.3,0.1,0.4,0.1c0,0.1,0.1,0.1,0.2,0.1s0.1,0,0.2,0 c0.1,0.1,0.1,0.1,0.2,0.1c0.3,0,0.7,0,1,0c0.1-0.1,0.2-0.1,0.3-0.1c0.1-0.1,0.2-0.1,0.4-0.1c0,0,0.1,0,0.1-0.1 c0.1,0,0.1,0,0.2-0.1c0-0.1,0.1-0.1,0.2-0.1c0.1-0.1,0.1-0.1,0.1-0.1c0.1-0.1,0.2-0.1,0.2-0.2c0.1,0,0.1,0,0.2,0 c0.1-0.1,0.1-0.1,0.1-0.2c0,0,0.1-0.1,0.2-0.1s0.1,0,0.1-0.1s0-0.1,0.1-0.1c0-0.1,0-0.1,0.1-0.1c0-0.1,0-0.1,0.1-0.1 c0-0.1,0-0.1,0-0.2l0.1-0.1c0.1-0.1,0.1-0.1,0.2-0.2c0,0,0-0.1,0.1-0.2l0.1-0.1c0-0.1,0-0.1,0.1-0.2v-0.1c0-0.1,0.1-0.1,0.1-0.2 c0-0.1,0-0.1,0.1-0.2c0,0,0-0.1,0.1-0.1c0-0.1,0-0.1,0-0.2c0-0.1,0-0.1,0.1-0.1l0.1-0.1c0-0.1,0-0.1,0.1-0.1v-0.1 c0-0.1,0.1-0.1,0.1-0.1c0-0.1,0-0.1,0-0.2v-0.1v-0.1c0-0.1,0-0.1,0-0.2v-0.1c0-0.1,0-0.1,0-0.2v-0.1c0-0.1,0-0.1,0-0.2 c0-0.1,0-0.1,0-0.2V188v-0.1v-0.1l-0.1-0.1c0-0.1,0-0.1,0-0.1l-0.1-0.1c0-0.1,0-0.1,0-0.2c-0.1,0-0.1-0.1-0.1-0.2 c0-0.1,0-0.1-0.1-0.1c0,0,0-0.1,0-0.2c-0.1-0.1-0.1-0.1-0.1-0.1c-0.1,0-0.1,0-0.1-0.1s0-0.1,0-0.1c0-0.1,0-0.1-0.1-0.1 c0-0.1,0-0.1-0.1-0.2c0,0,0-0.1-0.1-0.1l-0.1-0.1c-0.1,0-0.2-0.1-0.3-0.1c0-0.1,0-0.1-0.1-0.2c-0.1,0-0.1,0-0.1-0.1 c-0.1-0.1-0.1-0.1-0.1-0.2c-0.1,0-0.2-0.1-0.2-0.1c0-0.1,0-0.1-0.1-0.2c-0.1,0-0.1-0.1-0.2-0.2c0-0.1-0.1-0.1-0.1-0.1 c-0.1,0-0.2-0.1-0.2-0.2c-0.1-0.1-0.2-0.1-0.4-0.2c-0.1,0-0.2,0-0.2-0.1c-0.1-0.1-0.2-0.1-0.2-0.1c-0.1-0.1-0.2-0.1-0.2-0.1 c-0.1,0-0.2-0.1-0.3-0.1c-0.1-0.1-0.1-0.1-0.2-0.2c-0.6,0-1.1,0-1.6,0v0.1c-0.1,0-0.2,0-0.2,0c-0.1,0.1-0.2,0.1-0.2,0.1 c-0.1,0-0.1,0.1-0.2,0.2c-0.1,0.1-0.2,0.1-0.2,0.1c-0.1,0-0.1,0.1-0.2,0.2c-0.1,0.1-0.1,0.1-0.1,0.2c-0.1,0-0.1,0-0.2,0.1 C112.6,184.9,112.5,185,112.4,185 M252.8,196.8c-0.1,0.1-0.3,0.2-0.4,0.3c-0.1,0.1-0.3,0.3-0.4,0.4c-0.1,0.1-0.2,0.2-0.3,0.3 s-0.1,0.2-0.2,0.3c-0.1,0.1-0.2,0.2-0.3,0.3s-0.1,0.2-0.2,0.3c0,0.1-0.1,0.2-0.1,0.3s-0.1,0.2-0.1,0.3s-0.1,0.2-0.1,0.3 s-0.1,0.2-0.1,0.3s0,0.2,0,0.3s0,0.2,0,0.3s-0.1,0.2-0.1,0.3s0,0.2,0,0.3s0,0.2,0,0.3s0.1,0.2,0.1,0.3s0,0.2,0,0.3s0,0.2,0,0.3 s0.1,0.2,0.1,0.3s0,0.2,0,0.3c0.1,0.1,0.1,0.2,0.2,0.3c0,0.1,0.1,0.2,0.1,0.3c0.1,0.1,0.1,0.2,0.2,0.3c0.1,0.1,0.1,0.2,0.2,0.3 c0.1,0.1,0.1,0.2,0.2,0.3c0.1,0.1,0.2,0.2,0.3,0.3s0.3,0.2,0.4,0.3c0.1,0.1,0.3,0.2,0.4,0.3c0.2,0.1,0.5,0.2,0.7,0.3 s0.5,0.1,0.7,0.2c0.3,0,0.6,0.1,0.9,0.1c0.1,0,0.1,0,0.2,0c0.4,0,0.7,0,1.1,0c0.3,0,0.6-0.1,0.9-0.1c0.2-0.1,0.4-0.1,0.6-0.2 c0.2-0.1,0.4-0.2,0.6-0.3s0.3-0.2,0.5-0.3c0.1-0.1,0.3-0.2,0.4-0.3s0.1-0.2,0.2-0.3s0.2-0.2,0.3-0.3c0.1-0.1,0.1-0.2,0.2-0.3 c0-0.1,0.1-0.2,0.1-0.3c0.1-0.1,0.1-0.2,0.2-0.3c0-0.1,0.1-0.2,0.1-0.3s0.1-0.2,0.1-0.3s0.1-0.2,0.1-0.3s0-0.2,0-0.3 s0-0.2,0-0.3s0.1-0.2,0.2-0.3c-0.1-0.1-0.1-0.2-0.2-0.3c0-0.1,0-0.2,0-0.3s0-0.2,0-0.3s-0.1-0.2-0.1-0.3s0-0.2,0-0.3 c-0.1-0.1-0.1-0.2-0.2-0.3c0-0.1-0.1-0.2-0.1-0.3s-0.1-0.2-0.1-0.3c-0.1-0.1-0.1-0.2-0.2-0.3s-0.1-0.2-0.2-0.3s-0.1-0.2-0.2-0.3 s-0.3-0.2-0.4-0.3s-0.2-0.2-0.3-0.3c-0.1-0.1-0.3-0.2-0.4-0.4c-0.2-0.1-0.4-0.2-0.6-0.3s-0.4-0.2-0.6-0.3s-0.4-0.1-0.6-0.2 c-0.3,0-0.6-0.1-0.9-0.1c-0.2,0-0.4,0-0.6,0v0.1c-0.3,0-0.6,0-0.9,0c-0.2,0.1-0.5,0.1-0.7,0.2 C253.2,196.6,253,196.7,252.8,196.8 M262.9,183.5c-0.1,0.2-0.3,0.4-0.4,0.6c-0.2,0.2-0.4,0.4-0.6,0.7c-0.1,0.2-0.1,0.4-0.2,0.6 c0,0.2,0,0.4,0,0.6c-0.1,0.2-0.1,0.4-0.2,0.6c0.1,0.2,0.1,0.4,0.2,0.6c0,0.2,0,0.4,0,0.6c0.1,0.2,0.1,0.4,0.2,0.6 c0.1,0.2,0.1,0.4,0.2,0.6c0.1,0.2,0.3,0.4,0.4,0.6c0.2,0.2,0.4,0.4,0.6,0.6c0.4,0.2,0.7,0.4,1,0.6c0.6,0.1,1.2,0.3,1.9,0.4 c0.4-0.1,0.8-0.1,1.2-0.2c0.3-0.1,0.5-0.3,0.8-0.4c0.3-0.2,0.6-0.4,0.9-0.6c0.2-0.2,0.4-0.4,0.6-0.7c0.1-0.2,0.3-0.4,0.4-0.6 c0.1-0.2,0.1-0.4,0.2-0.6c0.1-0.2,0.1-0.4,0.2-0.6c0-0.2,0-0.4,0-0.6c0-0.2,0-0.5,0-0.7s0-0.4,0-0.6c-0.1-0.2-0.1-0.4-0.2-0.6 c-0.1-0.2-0.3-0.4-0.4-0.6c-0.1-0.2-0.3-0.4-0.4-0.7c-0.2-0.2-0.4-0.4-0.6-0.6c-0.4-0.2-0.7-0.4-1-0.6c-0.5-0.1-1.1-0.3-1.6-0.4 c0,0.1,0,0.1,0,0.2c-0.4,0-0.9,0-1.2,0c-0.3,0.1-0.7,0.3-1,0.4C263.4,183.1,263.2,183.3,262.9,183.5 M198,141 c-7.1,0-17.2,1.9-30.2,5.8c-13,3.8-21.2,5.7-24.8,5.7c-0.2,0-0.3,0-0.5,0c-11.7-0.1-22.9-2.7-33.3-7.8c-6-3-9.9-4.8-11.6-5.5 c-2.6-1-5.3-1.7-8.1-2c-1.8-0.3-3.7-0.4-5.5-0.4c-1.3,0-9.7,1.3-25.1,3.9c-7.7,1.3-15.5,2.7-23.2,4c-10.6,0-19.2-1-25.9-2.9 c-2.1-0.6-4.2-1.4-6.3-2.3c0,0.4-0.1,0.8-0.2,1.2c-1.1,10.5-2,20.9-2.6,31.1c4.7,0.8,10.1,1.3,16.4,1.5c8.4,0.3,18.4-1.4,30-5.1 c6.5-2.1,10.7-3.3,12.5-3.8c4.5-1.1,8.5-1.6,11.9-1.5c5.4,0.2,10.8,1.1,16.2,2.9c3.3,1.1,7.9,3,13.8,5.8 c6,2.8,10.6,4.8,13.8,5.9c5.3,1.8,10.6,2.7,15.8,2.9c3.3,0.1,6.7-0.1,10.3-0.5c1.3-0.2,2.5-0.3,3.8-0.5 c5.3-0.9,10.9-2.4,16.8-4.4c6.6-2.2,10.8-3.6,12.4-4c4.5-1.2,8.5-1.8,12-1.6c7.5,0.2,15.3,1.9,23.6,5c8.2,3,16.1,4.7,23.6,4.9 c8.5,0.3,19.2-2,32.1-6.8c7.5-2.8,12-4.5,13.7-5c4.8-1.5,8.8-2.2,12-2.1c0.1,0,0.2,0,0.3,0c0.1,0,0.2,0,0.4,0 c-0.1-1.7-0.3-3.3-0.4-5c-0.5-7-1.2-14.1-2-21.2c0-0.4-0.1-0.8-0.1-1.2c-7.3,0.3-16.4,2.3-27.4,6c-12.1,4-20.6,6.1-25.5,6.1 c-6.8,0-13.4-1.5-20-4.5C210.2,142.5,204,141,198,141 M149.4,125.9L149.4,125.9l-0.3-0.4H149l-0.1-0.1c0,0-0.1,0-0.1-0.1h-0.1 c-0.1,0-0.2,0-0.4,0h-0.1l-0.1,0.1l-0.1,0.1h-0.1h-0.1h-0.1v0.1h-0.1l-0.1,0.1v0.1h-0.1l-0.1,0.1l0,0h-0.1v0.2h-0.1v0.2H147v0.2 l0,0v0.2h-0.1v0.1h-0.1v0.7l0.1,0.1v0.1c0,0,0.1,0,0.1,0.1l0.1,0.1l0,0l0.1,0.1v0.1h0.1l0.3,0.3h0.1l0.1,0.1c0,0,0.1,0,0.1,0.1 c0,0,0.1,0,0.1,0.1h0.1h0.1l0,0l0.1,0.1h0.1c0.1,0,0.3,0,0.4,0h0.1l0,0l0.1-0.1h0.1c0,0,0,0,0.1,0l0,0l0.1-0.1 c0,0,0.1,0,0.1-0.1h0.1l0.1-0.1c0,0,0-0.1,0.1-0.1v-0.1h0.1l0,0v-0.1l0,0c0,0,0-0.1,0.1-0.1v-0.1h0.1V127l-0.1-0.1v-0.1h-0.1 v-0.1v-0.1v-0.1h-0.1v-0.2h-0.1v-0.1h-0.1v-0.1h-0.1L149.4,125.9C149.5,126,149.5,125.9,149.4,125.9 M141.5,131.9 c-0.3,0.1-0.7,0.3-1,0.4c-0.3,0.2-0.6,0.4-0.9,0.6c-0.1,0.2-0.3,0.5-0.4,0.7c-0.2,0.2-0.4,0.4-0.6,0.6c-0.1,0.2-0.1,0.4-0.2,0.6 c0,0.2,0,0.4,0,0.6c-0.1,0.2-0.1,0.4-0.2,0.7c0.1,0.2,0.1,0.4,0.2,0.6c0,0.2,0,0.4,0,0.6c0.1,0.2,0.1,0.4,0.2,0.6 c0.1,0.2,0.1,0.4,0.2,0.6c0.1,0.2,0.3,0.4,0.4,0.6c0.2,0.2,0.4,0.4,0.6,0.6c0.3,0.2,0.7,0.4,1.1,0.6c0.6,0.1,1.2,0.3,1.8,0.4 c0.1,0,0.3,0,0.4,0c0.4-0.1,0.8-0.1,1.2-0.2c0.3-0.1,0.5-0.3,0.8-0.4c0.3-0.2,0.6-0.4,0.9-0.6c0.2-0.2,0.4-0.4,0.6-0.6 c0.1-0.2,0.3-0.4,0.4-0.6c0.1-0.2,0.1-0.4,0.2-0.6s0.1-0.4,0.2-0.6c0-0.2,0-0.4,0-0.6c0-0.2,0-0.4,0-0.6c0-0.2,0-0.4,0-0.7 c-0.1-0.2-0.1-0.4-0.2-0.6c-0.1-0.2-0.3-0.4-0.4-0.6c-0.1-0.2-0.3-0.4-0.4-0.6c-0.2-0.2-0.4-0.4-0.6-0.6 c-0.4-0.2-0.7-0.4-1.1-0.6c-0.5-0.1-1.1-0.3-1.6-0.4c-0.2,0-0.3,0-0.4,0c0,0.1,0,0.1,0,0.2C142.3,131.9,141.9,131.9,141.5,131.9 M281.8,97.9c-1.1-3.1-2.2-6.1-3.4-9.1c-0.1-0.4-0.3-0.7-0.5-1.1c-1.7-4.1-3.7-8.1-5.8-11.9c-1.8,0.7-3.1,1.2-3.7,1.4 c-6.3,2.1-12.5,3.2-18.6,3.2c-2.9,0-10.5-1.1-22.8-3.4c-12.3-2.3-21.6-3.7-27.9-4.3c-6.3-0.6-15.5,1-27.4,4.8 c-11.9,3.9-20.7,6.2-26.3,7c-1.3,0.2-2.4,0.2-3.5,0.2c-6,0-12.2-1-18.7-3c-3.7-1.1-9.3-4.2-16.9-9.3c-7.7-5.1-14.1-8.7-19.3-11 c-5.3-2.3-13.3-2.9-24-1.7c-10.8,1.2-21.2,1.8-31.1,1.9c-0.6,0-1.1,0-1.7,0c-4.7,6.6-8.8,13.7-12.3,21.2 c-0.3,0.6-0.5,1.2-0.8,1.8c-0.1,0.3-0.3,0.6-0.4,0.9c-0.5,1.2-1,2.4-1.6,3.6c4.2,0.9,8.6,1.5,13.4,1.9c1.7,0.1,3.5,0.2,5.2,0.3 c4.8,0.2,11.4-0.3,19.8-1.4s14.6-1.6,18.5-1.4c4.1,0.1,8.4,1.2,13.1,3.2c1.6,0.6,5.8,2.8,12.8,6.5c12.1,6.2,23.6,9.6,34.5,10 c2.9,0.1,7-0.3,12.1-1.1c5.7-0.8,12.8-2.2,21.3-4.2c16.1-3.7,27.6-5.4,34.4-5.2c5.2,0.2,12.9,1.6,23.2,4.4 c10.3,2.7,18.4,4.2,24.3,4.5c6.2,0.2,12-0.5,17.4-2c2.9-0.8,7.5-2.6,13.6-5.2C279.7,98.7,280.8,98.3,281.8,97.9z"></path></g><path d="M151.4,297.8h-9.5c0,0-0.1,0-0.1,0l-5.4-0.1h-1.6c0,0-0.1,0-0.1,0c-2.8-0.1-5.6-0.2-8.3-0.3c-29.2-1.4-53.8-6.4-73.2-15 c-19.8-8.8-34.8-21.5-44.5-37.7C-0.7,228.7-5.4,209-4.9,186c0,0,0-0.1,0-0.1c0.8-22.9,2.9-46.7,6.4-70.7c0-0.1,0-0.2,0.1-0.4 C7,90.7,16.8,69.6,30.9,52C45,34.5,63.6,20.1,86.2,9.2c3.6-1.7,7.3-3.3,11-4.7c12.5-4.8,25.7-7.9,39.4-9.2c0,0,0.1,0,0.1,0l0.3,0 c0.3,0,0.5,0,0.8-0.1c0.1,0,0.2,0,0.3,0l3-0.1c0.4,0,0.9-0.1,1.4-0.1h8.2c0.3,0,0.7,0,1,0.1l2.4,0.1c0.1,0,0.1,0,0.2,0 c0.3,0,0.6,0,1,0c0.5,0,1,0.1,1.5,0.1c0,0,0,0,0,0c0.2,0,0.4,0.1,0.7,0.1c17.5,1.8,34.2,6.4,49.7,13.9c1.4,0.7,2.8,1.4,4.2,2.1 c21.4,10.9,39,25.2,52.4,42.4c13.4,17.2,22.8,37.8,28,61.1c0,0.1,0.1,0.2,0.1,0.4c3.5,24,5.7,47.8,6.4,70.7c0,0,0,0.1,0,0.1 c0.4,23-4.2,42.7-13.8,58.7c-11.4,19.2-30.1,33.3-55.6,42c-6.2,2.1-13,4-20,5.5c-0.9,0.2-1.8,0.4-2.6,0.5c-0.1,0-0.1,0-0.2,0 l-19.2,3c-0.1,0-0.3,0-0.4,0l-20.3,1.6c-0.1,0-0.2,0-0.2,0c-2.4,0.1-4.8,0.1-7.2,0.2c0,0-0.1,0-0.1,0h-1.6L151.4,297.8 C151.5,297.8,151.5,297.8,151.4,297.8z M141.9,287.8h9.5l5.4-0.1c0,0,0.1,0,0.1,0h1.5c2.3-0.1,4.7-0.1,7-0.2l20-1.6l19-3 c0.8-0.2,1.6-0.3,2.4-0.5c6.6-1.4,13-3.2,18.8-5.2c23.2-7.9,40.1-20.6,50.3-37.7c8.6-14.4,12.7-32.3,12.4-53.4 c-0.8-22.4-2.9-45.8-6.3-69.4c-4.9-21.8-13.7-41-26.1-57c-12.5-16-29-29.4-49-39.6c-1.3-0.7-2.6-1.3-4-2 c-14.4-6.9-30-11.3-46.3-12.9c-0.1,0-0.3,0-0.4,0c-0.1,0-0.3,0-0.4-0.1c-0.7,0-1.3-0.1-2-0.1L151.2,5c-0.2,0-0.4,0-0.6,0h-8 c-0.2,0-0.4,0-0.6,0c-0.1,0-0.2,0-0.3,0l-3.1,0.1c-0.2,0-0.5,0-0.8,0.1l-0.3,0c-12.8,1.2-25.1,4.1-36.8,8.6 c-3.5,1.3-6.9,2.8-10.3,4.4c-21.3,10.2-38.7,23.7-51.8,40c-13.1,16.3-22.3,36-27.3,58.6c-3.4,23.6-5.6,46.9-6.3,69.4 c-0.4,21.1,3.8,39,12.3,53.4c8.6,14.4,22.1,25.8,39.9,33.7c18.3,8.1,41.7,12.9,69.6,14.2c2.6,0.1,5.3,0.2,8,0.3h1.5 c0,0,0.1,0,0.1,0L141.9,287.8z"></path></g></g><g transform="matrix(2.9166107177734375, 0, 0, 2.9166107177734375, 1042.6,1961.9)"><g transform="matrix(1, 0, 0, 1, 0, 0)"><path fill="#C75151" d="M6,171.3L6,171.3c23.5,6.5,48.4,6.5,74.9,0c3.3-18,5.3-35.2,6.1-51.5c0.2-5.5,0.3-9,0.3-10.5l-73.1-5
					C14.5,121.4,11.8,143.8,6,171.3z"></path><path fill="#4e4943" d="M6,170.4c-1.5,7.7-3.1,15.6-5,23.7c-0.7,2.6-1,5.3-1,8.1c0,8.8,3.7,16.3,11,22.4c7.3,6.3,16.2,9.4,26.6,9.4
    h43.2c1.8,0,3.5-0.2,5.2-0.4c5.4-0.7,10.3-2.4,14.7-5.1c1.9-1.1,3.7-2.4,5.4-3.9c7.4-6.1,11-13.5,11-22.4
    c0-8.8-3.7-16.4-11-22.6c-5.8-4.8-12.5-7.8-20.1-8.9c-1.6-0.2-3.3-0.4-5.1-0.4C54.5,176.9,29.5,176.9,6,170.4z"></path><path d="M80.8,240H37.6C26,240,16,236.4,7.8,229.4c-8.5-7-12.8-15.8-12.8-26.2c0-3.2,0.4-6.3,1.2-9.3c1.8-7.8,3.5-15.6,4.9-23.2
				c0-0.1,0-0.3,0.1-0.4c5.6-27.1,8.4-49.3,8.1-65.9c0-2.8,2.2-5,4.9-5.1c2.8,0,5,2.2,5.1,4.9c0.2,17.3-2.6,40.1-8.3,67.8
				c0,0.1,0,0.2-0.1,0.3c-1.5,7.7-3.2,15.7-5,23.8c0,0.1,0,0.1,0,0.2c-0.6,2.2-0.9,4.5-0.9,6.8c0,7.3,3,13.4,9.2,18.5
				c0,0,0,0,0.1,0.1c6.5,5.5,14.1,8.2,23.3,8.2h43.2c1.6,0,3.1-0.1,4.6-0.4c0,0,0.1,0,0.1,0c4.7-0.6,8.9-2,12.7-4.4
				c0,0,0.1-0.1,0.1-0.1c1.6-0.9,3.1-2,4.6-3.3c0.1-0.1,0.1-0.1,0.2-0.1c6.2-5.1,9.2-11.2,9.2-18.5c0-7.4-3-13.5-9.3-18.8
				c-5.1-4.3-10.9-6.8-17.6-7.7c-1.4-0.2-2.9-0.3-4.4-0.4c-0.2,0-0.3,0-0.5,0c-0.6-0.1-1.1-0.2-1.6-0.5c-0.7-0.3-1.3-0.8-1.7-1.4
				c-0.5-0.6-0.8-1.2-1-2c-0.1-0.5-0.2-1.1-0.1-1.7c0-0.2,0-0.3,0.1-0.5c3.3-17.6,5.3-34.7,6-50.8c0.2-5.4,0.3-8.9,0.3-10.4
				c0.1-2.7,2.3-4.9,5-4.9c0,0,0.1,0,0.1,0c2.8,0.1,5,2.3,4.9,5.1c0,1.6-0.1,5-0.4,10.6c-0.6,14.9-2.4,30.6-5.2,46.8
				c8.4,1.2,16,4.6,22.5,9.9c0,0,0,0,0,0c8.5,7.2,12.8,16.1,12.8,26.4c0,10.3-4.3,19.1-12.8,26.1c-1.9,1.7-4,3.2-6.1,4.4
				c-5,3.1-10.6,5-16.6,5.8C84.9,239.8,82.9,240,80.8,240C80.9,240,80.9,240,80.8,240z"></path></g></g><g transform="matrix(2.9166107177734375, 0, 0, 2.9166107177734375, 1042.6,1961.9)"><g transform="matrix( 1, 0, 0, 1, 0,0) "><g fill="#D5D2EA"><path d="M78.6,126.6c-0.7,0.4-3.6,0.9-8.7,1.5c-5,0.6-8.6,0.9-10.7,0.9c-4.2,0-8-1.1-11.6-3.3 c-3.6-2.3-8.1-3.4-13.5-3.4c-3.6,0-8.8,1.1-15.8,3.4c-1.8,0.6-3.5,1.1-5.1,1.5c-0.5,5.3-1.2,11-2.1,16.9 c-0.3,1.7-0.5,3.4-0.8,5.1c0.3,0,0.5,0,0.8-0.1c3.2-0.3,7.7-1,13.4-1.9c8.9-1.5,13.5-2.2,13.9-2.2c3,0,7.5,0.9,13.5,2.6 c6,1.8,11.7,2.7,17.2,2.7c5.2,0,10.5-1.2,15.8-3.5c0.2-1.8,0.4-3.5,0.6-5.2c0.6-6,1.1-12,1.4-17.8 C83.7,124.5,81,125.4,78.6,126.6z"></path></g><path d="M80.8,240H37.6C26,240,16,236.4,7.8,229.4c-8.5-7-12.8-15.8-12.8-26.2c0-3.2,0.4-6.3,1.2-9.3c1.8-7.8,3.5-15.6,4.9-23.2
				c0-0.1,0-0.3,0.1-0.4c5.6-27.1,8.4-49.3,8.1-65.9c0-2.8,2.2-5,4.9-5.1c2.8,0,5,2.2,5.1,4.9c0.2,17.3-2.6,40.1-8.3,67.8
				c0,0.1,0,0.2-0.1,0.3c-1.5,7.7-3.2,15.7-5,23.8c0,0.1,0,0.1,0,0.2c-0.6,2.2-0.9,4.5-0.9,6.8c0,7.3,3,13.4,9.2,18.5
				c0,0,0,0,0.1,0.1c6.5,5.5,14.1,8.2,23.3,8.2h43.2c1.6,0,3.1-0.1,4.6-0.4c0,0,0.1,0,0.1,0c4.7-0.6,8.9-2,12.7-4.4
				c0,0,0.1-0.1,0.1-0.1c1.6-0.9,3.1-2,4.6-3.3c0.1-0.1,0.1-0.1,0.2-0.1c6.2-5.1,9.2-11.2,9.2-18.5c0-7.4-3-13.5-9.3-18.8
				c-5.1-4.3-10.9-6.8-17.6-7.7c-1.4-0.2-2.9-0.3-4.4-0.4c-0.2,0-0.3,0-0.5,0c-0.6-0.1-1.1-0.2-1.6-0.5c-0.7-0.3-1.3-0.8-1.7-1.4
				c-0.5-0.6-0.8-1.2-1-2c-0.1-0.5-0.2-1.1-0.1-1.7c0-0.2,0-0.3,0.1-0.5c3.3-17.6,5.3-34.7,6-50.8c0.2-5.4,0.3-8.9,0.3-10.4
				c0.1-2.7,2.3-4.9,5-4.9c0,0,0.1,0,0.1,0c2.8,0.1,5,2.3,4.9,5.1c0,1.6-0.1,5-0.4,10.6c-0.6,14.9-2.4,30.6-5.2,46.8
				c8.4,1.2,16,4.6,22.5,9.9c0,0,0,0,0,0c8.5,7.2,12.8,16.1,12.8,26.4c0,10.3-4.3,19.1-12.8,26.1c-1.9,1.7-4,3.2-6.1,4.4
				c-5,3.1-10.6,5-16.6,5.8C84.9,239.8,82.9,240,80.8,240C80.9,240,80.9,240,80.8,240z"></path></g></g><g transform="matrix(2.9166107177734375, 0, 0, 2.9166107177734375, 1002.9,1719.3)"><g transform="matrix(1, 0, 0, 1, 0, 0)"><path fill="#C75151" d="M15.6,43.5c-6,16-10,32.3-12.1,49.1c-0.7,5.4-1.3,10.8-1.9,16.1c22.8-2.2,45.5,0.3,68,7.7
        c1.2-14,3.8-28.1,7.7-42.3c3.9-14.2,12.5-29.8,25.9-46.8L49.7,0C33.7,10.8,22.4,25.3,15.6,43.5z"></path><path fill="#4e4943" d="M74.5,118.4c-1.4-1.4-3.1-2.4-5-3c-22.6-7.4-45.2-9.9-68-7.7c-0.5,6.7-0.9,13.5-1.2,20.5
    C0,130,0,131.8,0.1,133.8c0.3,9.3,3.8,17.1,10.5,23.4c6.8,6.4,14.9,9.4,24.2,9.1c9.3-0.3,17.2-3.8,23.5-10.7
    c3.6-3.7,6.2-8,7.9-12.8c3.6-0.4,6.6-1.9,8.9-4.4c2.6-2.9,3.9-6.4,3.8-10.2C78.9,124.4,77.4,121.1,74.5,118.4z"></path><path d="M33.7,172.4c-10.1,0-19-3.5-26.5-10.5c-7.7-7.3-11.8-16.3-12.1-26.9c-0.1-2.2,0-4.3,0.3-6.3c0.4-6.9,0.8-13.7,1.2-20.3
    c0,0,0-0.1,0-0.1c0,0,0,0,0,0v0c0,0,0-0.1,0-0.1c0.6-5.4,1.2-10.8,1.9-16.2c2.2-17.1,6.4-34,12.4-50.2c7.1-19,19.2-34.5,36-45.8
    c2.3-1.5,5.4-0.9,6.9,1.3c1.5,2.3,0.9,5.4-1.3,6.9c-15,10.2-25.9,24-32.3,41.1c-5.8,15.5-9.8,31.7-11.9,48
    c-0.7,5.3-1.3,10.7-1.9,16c-0.5,6.6-0.9,13.4-1.2,20.3c0,0.2,0,0.3,0,0.5c-0.2,1.4-0.3,3-0.2,4.6c0,0,0,0.1,0,0.1
    c0.2,8,3.2,14.5,9,20c5.8,5.5,12.6,8,20.6,7.8c8-0.2,14.5-3.2,20-9.1c0,0,0,0,0,0c3.1-3.2,5.4-6.9,6.8-11
    c0.6-1.8,2.3-3.1,4.2-3.3c2.4-0.3,4.3-1.2,5.8-2.8c1.8-2,2.6-4.1,2.5-6.7c-0.1-2.6-1-4.6-2.9-6.3c0,0-0.1-0.1-0.1-0.1
    c-0.9-0.9-1.9-1.5-3-1.9c-0.4-0.1-0.7-0.3-1.1-0.5c-0.6-0.4-1.2-0.9-1.6-1.5c-0.4-0.6-0.7-1.3-0.8-2.1c-0.1-0.4-0.1-0.8,0-1.2
    c1.3-14.2,3.9-28.7,7.8-43.1c4-14.8,13-31.2,26.8-48.6c1.7-2.2,4.9-2.5,7-0.8c2.2,1.7,2.5,4.9,0.8,7
    c-12.9,16.4-21.3,31.6-25,45.1c-3.5,12.7-5.9,25.5-7.2,38.1c1.1,0.7,2.1,1.5,3.1,2.4c3.8,3.6,5.8,8,6,13.3c0,0,0,0,0,0
    c0.1,5.2-1.6,9.8-5.1,13.7c0,0,0,0,0,0c-2.5,2.7-5.5,4.5-9,5.4c-1.9,4.3-4.6,8.3-7.9,11.8c-7.3,7.8-16.4,12-27,12.3
    C34.5,172.4,34.1,172.4,33.7,172.4z"></path></g></g><g transform="matrix(2.9166107177734375, 0, 0, 2.9166107177734375, 1002.9,1719.3)"><g transform="matrix( 1, 0, 0, 1, 0,0) "><g fill="#D5D2EA"><path d="M4.4,96.9c-0.5,0.1-1,0.1-1.5,0.2c0,0.1,0,0.3-0.1,0.4c-0.4,3.1-0.7,6.3-1.1,9.4c-0.1,0.6-0.1,1.2-0.2,1.8 c14.9,9.1,37.6,11.7,68,7.7c0.3-3.1,0.6-6.3,1-9.4c-8.3-0.6-17.2-2.4-26.7-5.2c-12.6-3.7-23.1-5.5-31.5-5.5 C10.3,96.3,7.7,96.5,4.4,96.9 M53.3,48.9c-2.3-0.4-5.2-0.6-8.6-0.6c-1.6,0-3.7,0.3-6.4,0.9c-2.7,0.5-5.9,0.8-9.6,0.8 C22,50,17.5,49.4,15,48.1c-0.3-0.2-0.6-0.4-0.9-0.6C14,47.7,14,47.8,13.9,48c-2.3,6.7-4.3,13.5-6,20.3c-0.1,0.2-0.1,0.5-0.2,0.7 c1.9,0.2,3.7,0.2,5.3,0.2c2.4,0,6.2-0.3,11.5-1s8.1-1.1,8.6-1.1c3.7,0,8.5,0.5,14.4,1.6c5.3,1,8.7,1.8,10.2,2.5 c0.8,0.4,2.7,1.5,5.6,3.5c3.1,2.1,5.8,3.7,8.1,4.9c1.3,0.7,2.6,1.2,3.8,1.8c0.1-0.3,0.2-0.7,0.2-1c0.3-1.4,0.7-2.8,1.1-4.2 c0.2-0.5,0.3-1.1,0.4-1.6c0.1-0.2,0.1-0.4,0.2-0.5c1.2-4.4,2.8-8.9,4.9-13.5c-0.6-0.2-1.1-0.3-1.7-0.5c-6.5-2-13-4.8-19.4-8.4 C58.7,50.3,56.2,49.4,53.3,48.9 M48.2,1c-0.2,0.2-0.5,0.4-0.8,0.5c0.5-0.3,0.9-0.7,1.4-1c-0.1,0.1-0.2,0.1-0.3,0.2 C48.5,0.8,48.4,0.9,48.2,1 M81.9,25.8c6.5,2.9,12.2,5.2,17.1,6.8c1.3-1.8,2.7-3.6,4.2-5.4L49.7,0c-0.1,0.1-0.3,0.2-0.5,0.2 c-0.1,0.1-0.1,0.1-0.2,0.2v0.1c0,0-0.1,0-0.1,0.1c-0.5,0.3-0.9,0.7-1.4,1l-14,12.3c-0.2,0.2-0.4,0.5-0.6,0.7 c-1.4,1.6-2.8,3.3-4.1,4.9c-0.1,0.2-0.2,0.3-0.3,0.5c-0.1,0.2-0.2,0.3-0.4,0.5c1,0,2.9,0,5.5,0c2.5,0,6.5-0.3,12-1s9.3-1,11.6-1 C62.6,18.5,70.9,20.9,81.9,25.8z"></path></g><path d="M33.7,172.4c-10.1,0-19-3.5-26.5-10.5c-7.7-7.3-11.8-16.3-12.1-26.9c-0.1-2.2,0-4.3,0.3-6.3c0.4-6.9,0.8-13.7,1.2-20.3
    c0,0,0-0.1,0-0.1c0,0,0,0,0,0v0c0,0,0-0.1,0-0.1c0.6-5.4,1.2-10.8,1.9-16.2c2.2-17.1,6.4-34,12.4-50.2c7.1-19,19.2-34.5,36-45.8
    c2.3-1.5,5.4-0.9,6.9,1.3c1.5,2.3,0.9,5.4-1.3,6.9c-15,10.2-25.9,24-32.3,41.1c-5.8,15.5-9.8,31.7-11.9,48
    c-0.7,5.3-1.3,10.7-1.9,16c-0.5,6.6-0.9,13.4-1.2,20.3c0,0.2,0,0.3,0,0.5c-0.2,1.4-0.3,3-0.2,4.6c0,0,0,0.1,0,0.1
    c0.2,8,3.2,14.5,9,20c5.8,5.5,12.6,8,20.6,7.8c8-0.2,14.5-3.2,20-9.1c0,0,0,0,0,0c3.1-3.2,5.4-6.9,6.8-11
    c0.6-1.8,2.3-3.1,4.2-3.3c2.4-0.3,4.3-1.2,5.8-2.8c1.8-2,2.6-4.1,2.5-6.7c-0.1-2.6-1-4.6-2.9-6.3c0,0-0.1-0.1-0.1-0.1
    c-0.9-0.9-1.9-1.5-3-1.9c-0.4-0.1-0.7-0.3-1.1-0.5c-0.6-0.4-1.2-0.9-1.6-1.5c-0.4-0.6-0.7-1.3-0.8-2.1c-0.1-0.4-0.1-0.8,0-1.2
    c1.3-14.2,3.9-28.7,7.8-43.1c4-14.8,13-31.2,26.8-48.6c1.7-2.2,4.9-2.5,7-0.8c2.2,1.7,2.5,4.9,0.8,7
    c-12.9,16.4-21.3,31.6-25,45.1c-3.5,12.7-5.9,25.5-7.2,38.1c1.1,0.7,2.1,1.5,3.1,2.4c3.8,3.6,5.8,8,6,13.3c0,0,0,0,0,0
    c0.1,5.2-1.6,9.8-5.1,13.7c0,0,0,0,0,0c-2.5,2.7-5.5,4.5-9,5.4c-1.9,4.3-4.6,8.3-7.9,11.8c-7.3,7.8-16.4,12-27,12.3
    C34.5,172.4,34.1,172.4,33.7,172.4z"></path></g></g><g transform="matrix(2.9166107177734375, 0, 0, 2.9166107177734375, 1097.75,348.85)"><g transform="matrix(-0.799560546875, 0.60052490234375, 0.60052490234375, 0.799560546875, 80.75,8.45)"><g transform="matrix(1, 0, 0, 1, 0, 0)"><g fill="#C75151"><path d="M44.4,89.1c2.2,1.4,4.5,2.8,6.8,4.2c2.2,1.3,4.4,2.2,6.6,2.7L67,84.1C60.5,92.1,52.9,93.8,44.4,89.1
                                             M98.8,43.5c-1.4-2.4-3.2-4.7-5.4-6.8c-0.6-0.6-1.2-1.1-1.8-1.7c4.9,5.2,4.3,11.9-1.8,20.1L98.8,43.5z"></path><path d="M91.6,34.9c-0.5-0.5-1.1-1-1.6-1.5C78,22.7,64.5,12.8,49.7,4c-4.2-2.5-8.6-3.8-13.2-4
                                            C32-0.1,28.1,0.9,24.7,3.1C13.6,10.7,5.7,21.7,0.9,36c-1.2,3.5-1.2,7.3-0.1,11.4c1.1,4,3.3,7.6,6.5,10.9
                                            c9.9,10.6,21,20,33.1,28.1c1.3,0.9,2.6,1.7,3.9,2.5c8.5,4.7,16,3,22.6-5l22.7-29C95.9,46.8,96.5,40.1,91.6,34.9z"></path></g><g><path d="M65.7,92.3c1.8-1.4,3.5-3,5.2-5c0,0,0,0,0-0.1c0,0,0-0.1,0.1-0.1l22.7-29c0,0,0,0,0.1-0.1c0,0,0-0.1,0.1-0.1
                                        c3.6-4.9,5.6-9.4,6-13.7c0.4-4.8-1.2-9.2-4.6-12.8c-0.1-0.1-0.1-0.1-0.2-0.2c-0.5-0.5-1.1-1-1.6-1.5c0,0,0,0,0,0
                                        C81.1,18.8,67.3,8.7,52.3-0.3c0,0,0,0,0,0C47.3-3.2,42.1-4.8,36.8-5c0,0,0,0-0.1,0C31.2-5.2,26.2-3.8,22-1c0,0-0.1,0-0.1,0.1
                                        C9.9,7.2,1.3,19.1-3.8,34.5C-5.3,39-5.4,43.8-4,48.8c0,0,0,0,0,0c1.4,4.7,3.9,9.1,7.7,13c10.2,10.8,21.6,20.5,34,28.8
                                        c1.3,0.9,2.7,1.8,4,2.6c0.1,0,0.1,0.1,0.2,0.1c0.1,0,0.1,0.1,0.2,0.1C50.5,98.1,58.7,97.7,65.7,92.3z M63.2,81
                                        c-5,6.1-9.9,7.2-16.2,3.8c-1.2-0.8-2.5-1.6-3.7-2.4C31.5,74.5,20.6,65.3,11,55c0,0,0,0,0,0c-2.6-2.8-4.4-5.6-5.3-8.8
                                        c-0.9-3.1-0.9-5.9,0-8.5c4.4-13.2,11.8-23.4,21.8-30.3C30,5.7,32.9,4.9,36.4,5c3.8,0.2,7.3,1.3,10.8,3.3
                                        c14.4,8.6,27.7,18.3,39.5,28.9c0.5,0.4,0.9,0.9,1.4,1.3c1.4,1.5,4.2,4.8-2.3,13.5L63.2,81z"></path></g></g></g></g><g transform="matrix(2.9166107177734375, 0, 0, 2.9166107177734375, 848.15,585.65)"><g transform="matrix(1, 0, 0, 1, 0, 0)"><path fill="#C75151" d="M540.4,89c-9.1-15.7-20-29.5-32.9-41.5c-13-12-27.1-21.6-42.5-28.7c-15.8-7.2-32.1-11.5-48.9-12.7
					c-48.7-3.8-97.8-5.9-147.3-6.1c-1.7,0-3.4,0-5.1,0c-40.5-0.1-81.2,1-122.3,3.3C118.4,4.5,97,11,77.3,22.8
					c-7.8,4.7-15.1,10-21.8,16c-9.7,8.6-18.3,18.5-25.9,29.8C16.6,87.8,7.9,109.3,3.4,132.9c-4.7,24.6-4.5,49.6,0.6,75
					c2,9.6,4,19.1,6.1,28.5c35.3,126.3,131.4,171.1,288.1,134.4l32.9-8.6c2.5-0.7,4.9-1.3,7.4-2c19.9-5.4,39.7-11.2,59.6-17.2
					c120.1-34.7,175.9-94.1,167.6-178.3c-1.6-7.9-3.3-15.9-5.2-23.9C556.4,122.3,549.7,105.1,540.4,89z"></path></g></g><g transform="matrix(2.9166107177734375, 0, 0, 2.9166107177734375, 848.15,585.65)"><g transform="matrix(1, 0, 0, 1, 0, 0)"><g fill="#D5D2EA"><path d="M124.5,321.2c-0.3,0-0.7-0.1-1.1-0.2c-0.9,0-1.8,0-2.8,0c0,0.1,0,0.1,0,0.2c-0.4,0-0.7,0-1.1,0 c-0.1,0-0.3,0.1-0.4,0.1s-0.2,0.1-0.3,0.1c-0.2,0.1-0.3,0.1-0.5,0.2c-0.3,0.1-0.7,0.2-1,0.4c-0.2,0.1-0.5,0.2-0.8,0.3 c-0.2,0.1-0.3,0.2-0.5,0.3c-0.1,0.1-0.3,0.3-0.4,0.4s-0.2,0.2-0.3,0.3c-0.1,0.1-0.2,0.2-0.3,0.3c-0.1,0.1-0.3,0.2-0.4,0.3 c-0.1,0.1-0.2,0.2-0.3,0.3c-0.1,0.1-0.2,0.2-0.3,0.4c-0.1,0.1-0.2,0.2-0.3,0.3c-0.1,0.1-0.1,0.2-0.2,0.3 c-0.1,0.1-0.2,0.2-0.2,0.4s-0.2,0.2-0.3,0.3c-0.1,0.1-0.1,0.2-0.2,0.4c-0.1,0.1-0.2,0.2-0.2,0.3c-0.1,0.1-0.1,0.2-0.2,0.3 c0,0.1-0.1,0.2-0.1,0.3c-0.1,0.1-0.1,0.2-0.2,0.3c0,0.1-0.1,0.2-0.1,0.4c0,0.1,0,0.2,0,0.3c0,0.1-0.1,0.2-0.1,0.3 c0,0.1,0,0.3,0,0.4s0,0.2,0,0.3c-0.1,0.1-0.1,0.2-0.2,0.3c0,0.1,0,0.2,0,0.3c0,0.1,0,0.2,0,0.3c0,0.1,0,0.2,0,0.4 c0,0.1,0,0.2,0,0.3c0,0.1-0.1,0.2-0.1,0.4c0,0.1-0.1,0.2-0.1,0.3s-0.1,0.2-0.1,0.3c0,0.1,0,0.2,0,0.4c0,0.1,0,0.2,0,0.3 c0,0.1-0.1,0.2-0.1,0.4c0,0.1,0,0.2,0,0.3c0,0.1,0,0.2,0,0.3c0,0.1,0.1,0.2,0.1,0.4c0,0.1,0,0.2,0,0.3s0,0.2,0,0.4 c0,0.1,0,0.2,0,0.3c0,0.1,0.1,0.2,0.1,0.3c0,0.1,0.1,0.2,0.1,0.3c0,0.1,0.1,0.2,0.1,0.3c0,0.1,0.1,0.2,0.2,0.4 c0,0.1,0.1,0.2,0.1,0.3c0,0.1,0.1,0.2,0.1,0.3c0,0.1,0.1,0.3,0.1,0.4s0.1,0.2,0.1,0.3s0.1,0.2,0.1,0.3c0,0.1,0.1,0.2,0.1,0.3 c0.1,0.1,0.2,0.2,0.2,0.3c0.1,0.1,0.1,0.2,0.2,0.4s0.1,0.2,0.2,0.3s0.1,0.2,0.2,0.4c0.1,0.1,0.2,0.2,0.3,0.3 c0.1,0.1,0.1,0.2,0.2,0.3c0.1,0.1,0.2,0.2,0.3,0.4c0.2,0.1,0.3,0.2,0.4,0.3c0.1,0.1,0.3,0.2,0.5,0.3c0.1,0.1,0.2,0.2,0.3,0.3 c0.1,0.1,0.2,0.2,0.3,0.3c0.2,0.1,0.3,0.2,0.4,0.4c0.2,0.1,0.3,0.2,0.5,0.3c0.2,0.1,0.4,0.2,0.6,0.3c0.3,0.1,0.5,0.3,0.8,0.4 s0.5,0.1,0.8,0.2c0.1,0,0.3,0.1,0.4,0.1s0.3,0.1,0.4,0.1s0.3,0.1,0.4,0.2c0.3,0,0.7,0.1,1.1,0.1c0.3,0,0.5,0,0.8,0 c0.4,0,0.7-0.1,1.1-0.1c0.2-0.1,0.3-0.1,0.4-0.2c0.1,0,0.3-0.1,0.4-0.1c0.2,0,0.3-0.1,0.4-0.1s0.3-0.1,0.4-0.1 c0.2,0,0.3-0.1,0.5-0.1c0.2-0.1,0.3-0.1,0.5-0.2s0.5-0.3,0.8-0.4c0.2-0.1,0.4-0.2,0.6-0.3c0.2-0.1,0.4-0.2,0.6-0.3 c0.1-0.1,0.3-0.2,0.4-0.3c0.2-0.1,0.3-0.2,0.5-0.3c0.1-0.1,0.2-0.2,0.3-0.4c0.1-0.1,0.3-0.2,0.4-0.3s0.2-0.2,0.3-0.4 c0.1-0.1,0.1-0.2,0.2-0.3c0.1-0.1,0.2-0.2,0.2-0.3c0.1-0.1,0.1-0.2,0.2-0.4c0.1-0.1,0.1-0.2,0.2-0.3c0.1-0.1,0.2-0.2,0.2-0.4 c0.1-0.1,0.1-0.2,0.2-0.3c0-0.1,0.1-0.2,0.1-0.3c0.1-0.1,0.1-0.2,0.2-0.4s0.1-0.2,0.2-0.3s0.1-0.2,0.1-0.4 c0.1-0.1,0.1-0.2,0.2-0.3c0-0.1,0.1-0.2,0.1-0.3c0-0.1,0.1-0.2,0.1-0.3c0-0.1,0.1-0.2,0.1-0.3c0-0.1,0.1-0.2,0.1-0.4 c0-0.1,0.1-0.2,0.1-0.3c0-0.1,0-0.2,0-0.3s0-0.2,0-0.4c0-0.1,0-0.2,0-0.3c0.1-0.1,0.1-0.2,0.2-0.3c0-0.1,0-0.2,0-0.4 c0-0.1,0-0.2,0-0.3c0-0.1,0-0.2,0-0.4c0-0.1,0-0.2,0-0.3c0-0.1-0.1-0.2-0.2-0.3c0-0.1,0-0.2,0-0.4s0-0.2,0-0.3s0-0.2,0-0.4 c0-0.1-0.1-0.2-0.1-0.3c0-0.1-0.1-0.2-0.1-0.3c0-0.1-0.1-0.2-0.1-0.3c0-0.1,0-0.2,0-0.3c-0.1-0.1-0.1-0.2-0.2-0.4 c0-0.1-0.1-0.2-0.1-0.3c0-0.1-0.1-0.2-0.1-0.3c0-0.1,0-0.3,0-0.4c-0.1-0.1-0.2-0.2-0.2-0.3c0-0.1-0.1-0.2-0.1-0.3 c0-0.1-0.1-0.2-0.1-0.3c-0.1-0.1-0.1-0.2-0.2-0.3c-0.1-0.1-0.1-0.2-0.2-0.4c-0.1-0.1-0.2-0.2-0.2-0.3s-0.1-0.2-0.2-0.4 c-0.1-0.1-0.1-0.2-0.2-0.3s-0.2-0.2-0.2-0.3c-0.1-0.1-0.1-0.2-0.2-0.4c0-0.1-0.1-0.2-0.1-0.3c-0.1-0.1-0.1-0.2-0.2-0.4 c-0.1-0.1-0.1-0.2-0.2-0.3c-0.1-0.1-0.2-0.2-0.2-0.3c-0.1-0.1-0.1-0.2-0.2-0.4c-0.1-0.1-0.3-0.2-0.5-0.3 c-0.1-0.1-0.3-0.2-0.4-0.4c-0.1-0.1-0.3-0.2-0.4-0.3c-0.2-0.1-0.3-0.2-0.5-0.3c-0.2-0.1-0.4-0.2-0.6-0.3 c-0.3-0.1-0.5-0.2-0.8-0.3C124.9,321.3,124.7,321.3,124.5,321.2z"></path><path d="M131.9,296.4c-0.1,0.1-0.2,0.2-0.3,0.3c-0.1,0.1-0.2,0.2-0.3,0.4c-0.1,0.1-0.2,0.2-0.4,0.3 c-0.1,0.1-0.1,0.2-0.2,0.4c-0.1,0.1-0.1,0.2-0.2,0.3s-0.1,0.2-0.2,0.3c-0.1,0.1-0.2,0.2-0.2,0.4c0,0.1-0.1,0.2-0.1,0.3 c0,0.1-0.1,0.2-0.1,0.4c0,0.1-0.1,0.2-0.1,0.3c0,0.1-0.1,0.2-0.1,0.3c0,0.1,0,0.2,0,0.3s0,0.2,0,0.3c0,0.1-0.1,0.2-0.1,0.4 c0,0.1,0,0.2,0,0.3s0,0.2,0,0.3c0,0.1,0,0.3,0,0.4s0,0.2,0,0.3c0,0.1,0.1,0.2,0.1,0.3c0,0.1,0,0.2,0,0.3c0,0.1,0,0.2,0,0.3 c0,0.1,0.1,0.2,0.1,0.4c0,0.1,0.1,0.2,0.1,0.3c0,0.1,0.1,0.2,0.1,0.3c0,0.1,0.1,0.2,0.1,0.4c0.1,0.1,0.2,0.2,0.2,0.3 c0.1,0.1,0.1,0.2,0.2,0.4c0.1,0.1,0.1,0.2,0.2,0.3c0.1,0.1,0.1,0.2,0.2,0.3c0.1,0.1,0.2,0.2,0.2,0.3c0.1,0.1,0.1,0.2,0.2,0.3 c0.1,0.1,0.2,0.2,0.3,0.4c0.1,0.1,0.2,0.2,0.4,0.3c0.1,0.1,0.3,0.2,0.4,0.3c0.2,0.1,0.3,0.3,0.6,0.4c0.2,0.1,0.5,0.2,0.8,0.3 c0.2,0.1,0.5,0.1,0.8,0.2c0.1,0,0.2,0.1,0.3,0.1s0.3,0.1,0.4,0.1c0.3,0,0.7,0.1,1.1,0.1c0.5,0,0.9,0,1.4,0 c0.3,0,0.7-0.1,1.1-0.1c0.2-0.1,0.4-0.1,0.6-0.2c0.2-0.1,0.5-0.3,0.8-0.4c0.2-0.1,0.3-0.2,0.5-0.3c0.2-0.1,0.3-0.2,0.4-0.3 c0.1-0.1,0.3-0.2,0.4-0.3c0.1-0.1,0.2-0.2,0.2-0.3c0.1-0.1,0.1-0.2,0.2-0.4s0.1-0.2,0.2-0.3c0.1-0.1,0.1-0.2,0.2-0.4 c0.1-0.1,0.2-0.2,0.2-0.3s0.1-0.2,0.2-0.3c0-0.1,0.1-0.2,0.1-0.4c0-0.1,0.1-0.2,0.1-0.3c0-0.1,0.1-0.2,0.1-0.4 c0-0.1,0.1-0.2,0.1-0.3c0.1-0.1,0.1-0.2,0.1-0.3c0-0.1,0-0.2,0-0.4s0-0.2,0-0.3c0-0.1,0.1-0.2,0.1-0.4c0-0.1,0-0.2,0-0.3 c0-0.1,0-0.2,0-0.3c0-0.1,0-0.2,0-0.3s0-0.2,0-0.3c0-0.1,0-0.2,0-0.4c0-0.1-0.1-0.2-0.1-0.3c0-0.1,0-0.2,0-0.3 c0-0.1,0-0.3,0-0.4s-0.1-0.2-0.1-0.3c0-0.1,0-0.2,0-0.3c0-0.1-0.1-0.2-0.1-0.3c-0.1-0.1-0.1-0.2-0.2-0.3 c0-0.1-0.1-0.2-0.1-0.4c0-0.1-0.1-0.2-0.1-0.3c-0.1-0.1-0.1-0.2-0.2-0.4c-0.1-0.1-0.2-0.2-0.2-0.3c-0.1-0.1-0.1-0.2-0.2-0.3 c-0.1-0.1-0.1-0.2-0.2-0.4c-0.1-0.1-0.3-0.2-0.4-0.3c-0.1-0.1-0.3-0.2-0.4-0.4c-0.2-0.1-0.3-0.2-0.4-0.3 c-0.2-0.1-0.3-0.2-0.5-0.3c-0.3-0.1-0.5-0.2-0.8-0.4c-0.2-0.1-0.4-0.1-0.7-0.2c-0.4,0-0.7-0.1-1.1-0.1c-0.4,0-0.8,0-1.2,0v0.1 c-0.4,0-0.7,0-1.1,0c-0.2,0-0.3,0.1-0.4,0.1c-0.2,0.1-0.4,0.1-0.7,0.2c-0.2,0.1-0.5,0.2-0.8,0.4c-0.2,0.1-0.4,0.2-0.6,0.3 c-0.2,0.1-0.3,0.2-0.5,0.4C132.3,296.2,132.1,296.3,131.9,296.4z"></path><path d="M81.4,277.3c-0.1-0.1-0.3-0.2-0.4-0.3c-0.1-0.1-0.3-0.2-0.4-0.3c-0.1-0.1-0.2-0.2-0.3-0.4 c-0.2-0.1-0.3-0.2-0.5-0.3c-0.1-0.1-0.3-0.2-0.4-0.4c-0.1-0.1-0.3-0.2-0.4-0.3c-0.2-0.1-0.4-0.2-0.7-0.3 c-0.3-0.1-0.6-0.2-0.8-0.4c-0.3-0.1-0.5-0.2-0.8-0.3c-0.2-0.1-0.4-0.1-0.7-0.2c-0.3-0.1-0.7-0.1-1.1-0.1s-0.9,0-1.3,0v0.1 c-0.3,0-0.7,0-1.1,0c-0.1,0-0.3,0.1-0.4,0.1s-0.2,0.1-0.3,0.1c-0.2,0.1-0.3,0.1-0.5,0.2s-0.3,0.2-0.5,0.3 c-0.2,0.1-0.5,0.2-0.7,0.4c-0.2,0.1-0.4,0.2-0.7,0.3c-0.2,0.1-0.3,0.2-0.5,0.4c-0.2,0.1-0.3,0.2-0.4,0.3 c-0.1,0.1-0.2,0.2-0.3,0.3c-0.2,0.1-0.3,0.2-0.4,0.4c-0.1,0.1-0.2,0.2-0.3,0.3c-0.1,0.1-0.2,0.2-0.3,0.4 c-0.1,0.1-0.1,0.2-0.2,0.3c-0.1,0.1-0.2,0.2-0.3,0.3c-0.1,0.1-0.2,0.2-0.2,0.3s-0.1,0.2-0.2,0.3c-0.1,0.1-0.1,0.2-0.2,0.4 c-0.1,0.1-0.1,0.2-0.2,0.3c-0.1,0.1-0.2,0.2-0.2,0.3c-0.1,0.1-0.1,0.3-0.2,0.4c0,0.1-0.1,0.2-0.1,0.3s-0.1,0.2-0.1,0.3 c0,0.1-0.1,0.2-0.1,0.3c0,0.1-0.1,0.2-0.1,0.3c0,0.1,0,0.2,0,0.4s0,0.2,0,0.3s0,0.2,0,0.4c-0.1,0.1-0.1,0.2-0.1,0.3 c0,0.1,0,0.2,0,0.3c0,0.1,0,0.2,0,0.4c0,0.1,0,0.2,0,0.3c0,0.1,0,0.2,0,0.4c0,0.1,0,0.2,0,0.3s0,0.2,0,0.3c0,0.1,0,0.2,0,0.4 c0,0.1,0.1,0.2,0.1,0.3c0,0.1,0,0.2,0,0.4c0,0.1,0,0.2,0,0.3c0,0.1,0.1,0.2,0.1,0.3c0,0.1,0.1,0.2,0.1,0.3 c0,0.1,0.1,0.2,0.1,0.3c0,0.1,0.1,0.2,0.1,0.4c0,0.1,0,0.2,0,0.3c0,0.1,0.1,0.2,0.1,0.3c0,0.1,0.1,0.3,0.1,0.4 s0.1,0.2,0.1,0.3c0,0.1,0.1,0.2,0.2,0.3c0,0.1,0.1,0.2,0.1,0.4c0,0.1,0.1,0.2,0.1,0.3c0,0.1,0.1,0.2,0.1,0.4 c0,0.1,0.1,0.2,0.1,0.3c0.1,0.1,0.1,0.2,0.2,0.3c0.1,0.1,0.1,0.2,0.2,0.4c0.1,0.1,0.2,0.2,0.3,0.3c0.1,0.1,0.1,0.2,0.2,0.4 c0.1,0.1,0.2,0.2,0.3,0.3c0.1,0.1,0.2,0.2,0.3,0.3c0.1,0.1,0.2,0.2,0.3,0.3c0.1,0.1,0.2,0.2,0.3,0.3c0.1,0.1,0.3,0.2,0.4,0.4 c0.2,0.1,0.3,0.2,0.5,0.3c0.1,0.1,0.3,0.2,0.4,0.3c0.2,0.1,0.4,0.3,0.6,0.4c0.3,0.1,0.5,0.2,0.8,0.3c0.2,0.1,0.5,0.1,0.8,0.2 c0.2,0.1,0.5,0.2,0.8,0.2c0.2,0.1,0.5,0.1,0.8,0.2c0.3,0,0.7,0.1,1.1,0.1s0.9,0,1.3,0c0.3,0,0.7-0.1,1.1-0.1 c0.2-0.1,0.4-0.1,0.7-0.2c0.4-0.1,0.8-0.1,1.2-0.2c0.2,0,0.3-0.1,0.4-0.1s0.2-0.1,0.3-0.1c0.2-0.1,0.3-0.1,0.4-0.2 c0.2-0.1,0.5-0.2,0.8-0.3c0.2-0.1,0.5-0.3,0.8-0.4c0.2-0.1,0.3-0.2,0.5-0.3s0.3-0.2,0.4-0.3c0.1-0.1,0.3-0.2,0.4-0.3 c0.1-0.1,0.2-0.2,0.2-0.3c0.1-0.1,0.1-0.2,0.2-0.4c0.1-0.1,0.1-0.2,0.2-0.3s0.1-0.2,0.2-0.4c0.1-0.1,0.2-0.2,0.2-0.3 c0-0.1,0.1-0.2,0.1-0.3c0.1-0.1,0.1-0.2,0.2-0.4c0.1-0.1,0.1-0.2,0.2-0.3c0.1-0.1,0.2-0.2,0.2-0.4c0-0.1,0.1-0.2,0.1-0.3 s0.1-0.2,0.1-0.3c0.1-0.1,0.1-0.2,0.2-0.4c0-0.1,0.1-0.2,0.1-0.3c0-0.1,0-0.2,0-0.4c0-0.1,0.1-0.2,0.1-0.3c0-0.1,0-0.2,0-0.3 c0-0.1,0-0.2,0-0.3c0.1-0.1,0.1-0.2,0.1-0.3c0-0.1,0-0.2,0-0.4c0-0.1,0-0.2,0-0.3s0-0.2,0-0.3c0-0.1,0-0.3,0-0.4 s-0.1-0.2-0.1-0.3c0-0.1,0-0.2,0-0.3c0-0.1,0-0.2,0-0.3c0-0.1,0-0.2,0-0.3c0-0.1-0.1-0.2-0.1-0.4s-0.1-0.2-0.1-0.3 c0-0.1-0.1-0.2-0.1-0.3c0-0.1-0.1-0.2-0.1-0.4c0-0.1-0.1-0.2-0.1-0.3c-0.1-0.1-0.1-0.2-0.2-0.4c-0.1-0.1-0.2-0.2-0.2-0.3 c0-0.1-0.1-0.2-0.1-0.3c0-0.1-0.1-0.2-0.1-0.3c-0.1-0.1-0.1-0.2-0.2-0.3c0-0.1-0.1-0.2-0.1-0.4c-0.1-0.1-0.2-0.2-0.2-0.3 s-0.1-0.2-0.2-0.3c0-0.1-0.1-0.3-0.1-0.4c-0.1-0.1-0.1-0.2-0.2-0.3c0-0.1-0.1-0.2-0.1-0.3c-0.1-0.1-0.2-0.2-0.2-0.3 c-0.1-0.1-0.1-0.2-0.2-0.3c-0.1-0.1-0.1-0.2-0.2-0.4s-0.1-0.2-0.2-0.3C81.7,277.6,81.6,277.5,81.4,277.3z"></path><path d="M70.4,311.4c-0.1,0.1-0.3,0.2-0.4,0.3c-0.1,0.1-0.2,0.2-0.3,0.3s-0.2,0.2-0.3,0.3 c-0.1,0.1-0.1,0.2-0.2,0.3c-0.1,0.1-0.2,0.2-0.3,0.4c-0.1,0.1-0.1,0.2-0.2,0.3c0,0.1-0.1,0.2-0.1,0.3 c-0.1,0.1-0.1,0.2-0.2,0.3c0,0.1-0.1,0.2-0.1,0.3c0,0.1-0.1,0.2-0.1,0.3c0,0.1,0,0.2,0,0.3c0,0.1-0.1,0.2-0.1,0.3 c0,0.1,0,0.2,0,0.3c0,0.1,0,0.2,0,0.3c0,0.1-0.1,0.2-0.1,0.3c0,0.1,0,0.2,0,0.3c0,0.1,0.1,0.2,0.1,0.4c0,0.1,0,0.2,0,0.3 c0,0.1,0,0.2,0,0.3c0,0.1,0.1,0.2,0.1,0.3c0,0.1,0,0.2,0,0.3c0,0.1,0.1,0.2,0.1,0.3c0,0.1,0.1,0.2,0.1,0.3 c0.1,0.1,0.1,0.2,0.2,0.3c0,0.1,0.1,0.2,0.1,0.3c0.1,0.1,0.1,0.2,0.2,0.3c0.1,0.1,0.2,0.2,0.3,0.3c0.1,0.1,0.1,0.2,0.2,0.4 c0.1,0.1,0.2,0.2,0.3,0.3s0.2,0.2,0.3,0.3c0.1,0.1,0.3,0.2,0.4,0.3c0.2,0.1,0.4,0.2,0.6,0.3c0.3,0.1,0.5,0.2,0.8,0.3 c0.2,0.1,0.5,0.1,0.7,0.2c0.3,0,0.7,0.1,1,0.1s0.7-0.1,1-0.1c0.2,0,0.3-0.1,0.5-0.1c0.2-0.1,0.3-0.1,0.5-0.2s0.5-0.2,0.7-0.3 c0.1-0.1,0.3-0.2,0.4-0.3s0.3-0.2,0.4-0.3c0.1-0.1,0.3-0.2,0.4-0.3c0.1-0.1,0.2-0.2,0.3-0.3c0.1-0.1,0.2-0.2,0.3-0.4 c0.1-0.1,0.2-0.2,0.2-0.3s0.1-0.2,0.2-0.3c0.1-0.1,0.1-0.2,0.2-0.3c0-0.1,0.1-0.2,0.1-0.3c0.1-0.1,0.1-0.2,0.2-0.3 c0-0.1,0.1-0.2,0.1-0.3s0.1-0.2,0.1-0.3c0-0.1,0.1-0.2,0.1-0.3c0-0.1,0.1-0.2,0.1-0.3c0-0.1,0-0.2,0-0.3c0-0.1,0-0.2,0-0.4 c0-0.1,0-0.2,0-0.3c0-0.1,0-0.2,0-0.3s0-0.2,0-0.3s0-0.2,0-0.3c0-0.1-0.1-0.2-0.1-0.3c0-0.1-0.1-0.2-0.1-0.3 c0-0.1-0.1-0.2-0.1-0.3s-0.1-0.2-0.1-0.3c-0.1-0.1-0.1-0.2-0.2-0.3c0-0.1-0.1-0.2-0.1-0.3c-0.1-0.1-0.1-0.2-0.2-0.4 c-0.1-0.1-0.1-0.2-0.2-0.3s-0.2-0.2-0.2-0.3c-0.1-0.1-0.2-0.2-0.3-0.3c-0.1-0.1-0.3-0.2-0.4-0.3c-0.1-0.1-0.3-0.2-0.4-0.3 c-0.2-0.1-0.3-0.2-0.5-0.3c-0.2-0.1-0.5-0.2-0.7-0.3c-0.2-0.1-0.5-0.1-0.7-0.2c-0.4,0-0.7-0.1-1.1-0.1c-0.1,0-0.2,0-0.3,0v0.1 c-0.3,0-0.7,0-1,0c-0.1,0-0.3,0.1-0.4,0.1c-0.2,0.1-0.4,0.1-0.6,0.2s-0.4,0.2-0.7,0.3C70.7,311.2,70.6,311.3,70.4,311.4z"></path><path d="M40.4,279.6v0.1v0.1v0.1c0,0.1,0,0.1,0,0.1v0.1l-0.1,0.1c0,0,0,0.1,0,0.2v0.1v0.1v0.1c0,0.1,0,0.1,0,0.1 v0.1c0,0,0,0.1,0.1,0.1v0.1v0.1v0.1v0.1v0.1c0,0,0,0.1,0.1,0.1v0.1c0,0.1,0,0.1,0,0.1l0.1,0.1l0.1,0.1l0.1,0.1l0.1,0.1 l0.1,0.1c0,0,0.1,0.1,0.2,0.1c0,0.1,0.1,0.1,0.1,0.1c0.1,0,0.1,0.1,0.2,0.1c0,0,0.1,0.1,0.2,0.1c0.1,0,0.2,0.1,0.3,0.1 c0,0,0.1,0.1,0.2,0.1c0.1,0,0.2,0.1,0.3,0.1c0.3,0,0.7,0,1,0c0.1,0,0.2,0,0.2,0c0.1,0,0.1,0,0.2,0c0.1,0,0.2-0.1,0.2-0.1 s0.1,0,0.2-0.1h0.1c0,0,0.1-0.1,0.2-0.1c0.1-0.1,0.1-0.1,0.1-0.1l0.1-0.1l0.1-0.1c0-0.1,0.1-0.1,0.2-0.1l0.1-0.1 c0.1,0,0.1-0.1,0.2-0.1c0.1,0,0.1-0.1,0.1-0.2l0.1-0.1v-0.1l0.1-0.1c0-0.1,0-0.1,0.1-0.1l0.1-0.1v-0.1v-0.1c0,0,0-0.1,0.1-0.1 V281v-0.1c0-0.1,0-0.1,0-0.2v-0.1v-0.1c0-0.1,0-0.1,0-0.1v-0.1v-0.1v-0.1V280l-0.1-0.1v-0.1c0-0.1,0-0.1,0-0.1v-0.1l-0.1-0.1 c0,0,0-0.1,0-0.2l-0.1-0.1v-0.1l-0.1-0.1c0-0.1,0-0.1,0-0.1l-0.1-0.1l-0.1-0.1c0-0.1-0.1-0.1-0.1-0.1l-0.1-0.1l-0.1-0.1 c0,0-0.1-0.1-0.2-0.1l-0.1-0.1c-0.1,0-0.1-0.1-0.2-0.1c-0.1,0-0.1-0.1-0.2-0.1c-0.1-0.1-0.2-0.1-0.2-0.1c-0.1,0-0.2,0-0.3-0.1 c-0.1,0-0.1-0.1-0.2-0.1c-0.1,0-0.2,0-0.3,0s-0.2,0-0.2,0c-0.1,0-0.2,0-0.2,0c-0.1,0-0.1,0.1-0.2,0.1c-0.1,0-0.1,0.1-0.2,0.1 c-0.1,0-0.2,0.1-0.2,0.1c-0.1,0-0.2,0.1-0.2,0.1l-0.1,0.1c-0.1,0-0.2,0.1-0.3,0.1h-0.1c-0.1,0-0.1,0.1-0.1,0.1 c-0.1,0-0.1,0.1-0.2,0.1c-0.1,0-0.1,0.1-0.2,0.1l-0.1,0.1l-0.1,0.1v0.1c0,0.1,0,0.1,0,0.2l-0.1,0.1v0.1v0.1v0.1v0.1 C40.9,279.6,40.5,279.6,40.4,279.6z"></path></g><path fill="#4e4943" d="M531.9,152.4c-5.2-26.7-18-47.9-38.4-63.6c-20.4-15.6-42.5-21.2-66.2-16.6c-23.7,4.6-42,18-55.1,40.1
					c-13.1,22.1-17,46.6-11.9,73.3c0.8,4.3,1.9,8.5,3.1,12.5c6.4,21,18.2,38,35.2,51.1c5.4,4.1,10.8,7.5,16.4,10.2
					c15.7,7.6,32.3,9.7,49.8,6.3c16.7-3.2,30.8-10.8,42.2-22.8c2.7-2.7,5.2-5.7,7.5-8.9c1.9-2.6,3.8-5.4,5.5-8.4
					C533.1,203.6,537.1,179.1,531.9,152.4z"></path><path d="M201.7,388.2c-3.3,0-6.5-0.1-9.7-0.2c-32.1-1-60.9-7.4-85.4-18.8C82,357.7,61,340.8,44.1,318.8
				C27.4,297,14.4,269.7,5.4,237.7c0-0.1,0-0.2-0.1-0.2c-2.1-9.4-4.2-19-6.2-28.5c-5.3-25.9-5.5-51.8-0.7-77
				c4.6-24.2,13.7-46.4,26.9-66.1c7.8-11.6,16.8-21.9,26.7-30.7c7-6.2,14.6-11.8,22.6-16.6C95,6.4,117.4-0.4,141.1-1.7
				c41-2.3,82.3-3.4,122.6-3.3c1.7,0,3.4,0,5.1,0c49.4,0.2,99.1,2.3,147.7,6.1c17.3,1.3,34.3,5.7,50.5,13.2
				c15.8,7.3,30.5,17.3,43.8,29.6c13.2,12.2,24.6,26.6,33.8,42.6c9.5,16.4,16.5,34.2,20.9,52.9c0,0,0,0,0,0
				c1.9,8.1,3.6,16.2,5.2,24.1c0,0.2,0.1,0.3,0.1,0.5c2.1,21.7,0.1,42-6,60.6c-6.2,18.6-16.6,35.8-31,51.1
				c-14.3,15.2-32.9,29-55.2,40.9c-22.2,11.9-48.8,22.3-79,31c-19.8,6-39.9,11.8-59.7,17.2c-2.5,0.7-5,1.4-7.5,2.1l-32.9,8.7
				c0,0-0.1,0-0.1,0C264,384,231.1,388.2,201.7,388.2z M15,235.1c8.6,30.7,21.1,56.9,37,77.6c15.9,20.6,35.6,36.6,58.8,47.4
				c23.3,10.9,50.7,16.9,81.5,17.9c31,1,66.3-3.1,104.8-12.1l32.8-8.6c2.4-0.6,4.9-1.3,7.4-2c19.8-5.4,39.8-11.2,59.5-17.2
				c0,0,0,0,0.1,0c29.5-8.5,55.5-18.7,77-30.3c21.4-11.5,39.1-24.6,52.7-39c13.4-14.3,23.1-30.2,28.8-47.4
				c5.7-17.1,7.6-36.1,5.6-56.2c-1.5-7.8-3.2-15.7-5.1-23.5c-4.2-17.8-10.8-34.6-19.8-50.2c-8.8-15.2-19.5-28.7-32-40.3
				c-12.5-11.6-26.4-21-41.2-27.8c-15.2-6.9-31-11.1-47.1-12.3C367.4,7.3,318,5.3,268.8,5c-1.7,0-3.4,0-5.1,0
				c-40.2-0.1-81.2,1-122,3.3c-22.1,1.2-42.9,7.5-61.8,18.8c-7.5,4.5-14.6,9.7-21.1,15.5c-9.3,8.3-17.8,18-25.1,28.9
				C21.2,90,12.7,111,8.3,133.8c-4.6,23.8-4.4,48.4,0.6,73.1C10.9,216.3,12.9,225.8,15,235.1z"></path></g></g><g transform="matrix(2.9166107177734375, 0, 0, 2.9166107177734375, 2037.2,948.05)"><g transform="matrix(1, 0, 0, 1, 0, 0)"><path d="M16.3,17.8c-0.4-2.2-1.6-4-3.5-5.2c-1.9-1.3-3.9-1.7-6.1-1.2c-2.2,0.4-4,1.6-5.2,3.4s-1.7,3.9-1.2,6.1s1.6,4,3.4,5.2
            c1.9,1.3,3.9,1.7,6.1,1.3s4-1.6,5.2-3.5C16.3,22.1,16.7,20,16.3,17.8 M73.7,6.7c-0.4-2.2-1.6-4-3.5-5.2
            c-1.9-1.3-3.9-1.7-6.2-1.2c-2.2,0.4-4,1.6-5.2,3.4s-1.7,3.9-1.2,6.1c0.4,2.2,1.6,4,3.4,5.2c1.9,1.3,3.9,1.7,6.1,1.3
            c2.2-0.4,4-1.6,5.2-3.5C73.7,10.9,74.2,8.9,73.7,6.7z"></path><path d="M8.1,32.6c-2.6,0-5.1-0.8-7.4-2.3c-2.9-2-4.8-4.9-5.5-8.4c-0.7-3.5,0-7,2-9.9c2-2.9,4.9-4.9,8.4-5.6c3.5-0.7,6.9,0,9.9,2
        c3,2,4.9,4.9,5.6,8.4c0.7,3.5,0,7-2.1,9.9c-2,3-4.9,4.9-8.4,5.6C9.8,32.5,9,32.6,8.1,32.6z M8.3,16.1c-0.2,0-0.5,0-0.7,0.1
        c-0.9,0.2-1.5,0.6-2.1,1.3C5,18.3,4.9,19,5.1,19.9c0.2,0.9,0.6,1.5,1.3,2.1c0,0,0,0,0.1,0c0.8,0.5,1.4,0.7,2.3,0.5
        c0.9-0.2,1.5-0.6,2-1.4c0,0,0-0.1,0.1-0.1c0.5-0.8,0.7-1.4,0.5-2.3c0,0,0,0,0,0c-0.2-0.9-0.6-1.5-1.4-2c0,0,0,0,0,0
        C9.4,16.3,8.9,16.1,8.3,16.1z M65.6,21.5c-2.6,0-5.1-0.8-7.4-2.3c-2.9-2-4.8-4.9-5.5-8.4c-0.7-3.5,0-7,2-9.9
        c2-2.9,4.9-4.9,8.4-5.6c3.5-0.7,6.9,0,9.9,2c3,2,4.9,4.9,5.6,8.4l0,0c0.7,3.5,0,7-2.1,9.9c-2,3-4.9,4.9-8.4,5.6
        C67.3,21.4,66.4,21.5,65.6,21.5z M65.8,5c-0.2,0-0.5,0-0.7,0.1c-0.9,0.2-1.5,0.6-2.1,1.3c-0.5,0.8-0.7,1.5-0.5,2.4
        c0.2,0.9,0.6,1.5,1.3,2.1c0,0,0,0,0,0c0.8,0.5,1.4,0.7,2.3,0.5c0.9-0.2,1.5-0.6,2-1.4c0,0,0-0.1,0.1-0.1c0.5-0.8,0.7-1.4,0.5-2.3
        l0,0c-0.2-0.9-0.6-1.5-1.4-2c0,0,0,0,0,0C66.9,5.2,66.4,5,65.8,5z"></path></g></g><g transform="matrix(2.9166107177734375, 0, 0, 2.9166107177734375, 746.1,619.15)"><g transform="matrix(1, 0, 0, 1, 0, 0)" fill="#C75151"><path d="M44.4,89.1c2.2,1.4,4.5,2.8,6.8,4.2c2.2,1.3,4.4,2.2,6.6,2.7L67,84.1C60.5,92.1,52.9,93.8,44.4,89.1
                                         M98.8,43.5c-1.4-2.4-3.2-4.7-5.4-6.8c-0.6-0.6-1.2-1.1-1.8-1.7c4.9,5.2,4.3,11.9-1.8,20.1L98.8,43.5z"></path><path d="M91.6,35c-0.5-0.5-1.1-1-1.6-1.5C78,22.7,64.5,12.8,49.7,4c-4.2-2.5-8.6-3.8-13.2-4
                                        C32-0.1,28.1,0.9,24.7,3.2C13.6,10.8,5.7,21.7,0.9,36c-1.2,3.5-1.2,7.3,0,11.4c1.1,4,3.3,7.6,6.5,11c9.9,10.6,21,20,33.1,28.1
                                        c1.3,0.9,2.6,1.7,4,2.5c8.5,4.7,16,3,22.6-5l22.8-29C95.9,46.8,96.5,40.1,91.6,35z"></path></g><g><path d="M53.4,96.7c-3.7,0-7.5-1-11.3-3.1c-0.1,0-0.1-0.1-0.2-0.1c-0.1,0-0.1-0.1-0.2-0.1c-1.3-0.9-2.7-1.7-4-2.6
                                    c-12.4-8.3-23.8-18-34-28.8C0,58-2.6,53.6-4,48.9c0,0,0,0,0,0c-1.4-5.1-1.4-9.9,0.1-14.3C1.3,19.1,9.9,7.2,21.9-1
                                    c0,0,0.1,0,0.1-0.1c4.3-2.8,9.2-4.1,14.7-4c0,0,0,0,0.1,0c5.4,0.2,10.6,1.8,15.5,4.7c0,0,0,0,0,0c15,9,28.8,19.1,41.1,30.1
                                    c0,0,0,0,0,0c0.5,0.5,1.1,1,1.6,1.5c0.1,0.1,0.1,0.1,0.2,0.2c3.4,3.6,5,8,4.6,12.8c-0.4,4.3-2.3,8.8-6,13.7c0,0,0,0.1-0.1,0.1
                                    c0,0,0,0,0,0.1L71,87.2c0,0,0,0,0,0c0,0-0.1,0.1-0.1,0.1C65.8,93.5,59.8,96.7,53.4,96.7z M47,84.8c6.3,3.4,11.1,2.3,16.2-3.8
                                    l22.6-28.9c6.4-8.7,3.6-12.1,2.3-13.5c-0.5-0.4-0.9-0.9-1.4-1.3c-11.7-10.6-25-20.3-39.5-28.9C43.7,6.3,40.1,5.2,36.4,5
                                    c-3.4-0.1-6.4,0.7-8.9,2.3C17.4,14.2,10.1,24.4,5.6,37.6c-0.8,2.6-0.8,5.4,0,8.5c0.9,3.2,2.6,6.1,5.3,8.8c0,0,0,0,0,0
                                    c9.6,10.3,20.5,19.5,32.3,27.4C44.5,83.2,45.7,84,47,84.8z"></path></g></g><svg x="0px" y="0px" viewBox="0 0 3000 3000"><g id="emotion_x5F_bigsmile_x5F_eyes" transform="matrix(2.862030029296875, -0.5612640380859375, 0.5612640380859375, 2.862030029296875, 1072.45,942.75)"><g transform="matrix(1, 0, 0, 1, 0, 0)"><g><g id="EYES_10_Layer0_0_FILL"><path fill="#cf80a6" d="M27,83.1c-7.7,0-14.2,1-19.6,3.1s-8.1,4.6-8.1,7.5c0,2.9,2.7,5.4,8.1,7.5c5.4,2.1,11.9,3.1,19.6,3.1
					c7.6,0,14.1-1,19.5-3.1c5.4-2,8.2-4.5,8.2-7.5s-2.7-5.4-8.2-7.5C41.2,84.1,34.7,83.1,27,83.1 M196.5,93.7c0-2.9-2.7-5.4-8.1-7.5
					c-5.4-2.1-11.9-3.1-19.6-3.1c-7.7,0-14.2,1-19.6,3.1s-8.1,4.6-8.1,7.5s2.7,5.4,8.1,7.5c5.4,2.1,11.9,3.1,19.6,3.1
					c7.6,0,14.1-1,19.6-3.1C193.8,99.1,196.5,96.6,196.5,93.7z"></path><path d="M48.3,27.6c0-7.7-1.8-14.2-5.6-19.5C38.8,2.7,34.2,0,28.8,0c-5.5,0-10.1,2.7-13.9,8.1C10.9,13.4,9,19.9,9,27.6
					c0,6.8,1.5,12.7,4.6,17.8c10.6-3.1,20.6-3.1,30,0C46.8,40.3,48.3,34.4,48.3,27.6 M36.8,11.4c1.4,0.3,2.5,1.3,3.3,2.9
					c0.8,1.6,1,3.4,0.8,5.3c-0.3,1.9-1,3.3-2.2,4.4c-1.2,1-2.5,1.3-3.9,1c-1.4-0.3-2.5-1.3-3.2-2.9c-0.8-1.6-1-3.4-0.8-5.2
					c0.3-1.9,1-3.4,2.2-4.4C34.2,11.3,35.5,11,36.8,11.4 M185.4,45.3c3.1-5,4.7-10.9,4.7-17.7c0-7.7-1.9-14.2-5.7-19.5
					c-3.8-5.4-8.5-8.1-13.9-8.1c-5.5,0-10.1,2.7-13.9,8.1c-3.9,5.3-5.8,11.9-5.8,19.6c0,6.8,1.5,12.7,4.6,17.7
					C165.4,41.4,175.4,41.4,185.4,45.3 M173.4,22c-0.8-1.6-1-3.4-0.8-5.2c0.3-1.9,1-3.4,2.2-4.4c1.2-1,2.5-1.4,3.8-1
					c1.4,0.3,2.5,1.3,3.3,2.9c0.8,1.6,1,3.4,0.8,5.3c-0.3,1.9-1,3.3-2.2,4.4c-1.2,1-2.5,1.3-3.9,1C175.2,24.6,174.2,23.6,173.4,22z"></path><path fill="#ffffff" d="M40.2,14.3c-0.8-1.6-1.9-2.6-3.3-2.9c-1.3-0.4-2.6,0-3.8,1c-1.2,1.1-2,2.5-2.2,4.4c-0.2,1.9,0,3.6,0.8,5.2
					c0.8,1.6,1.9,2.6,3.2,2.9c1.4,0.3,2.7,0,3.9-1c1.2-1.1,1.9-2.5,2.2-4.4C41.2,17.7,40.9,15.9,40.2,14.3 M172.6,16.8
					c-0.2,1.9,0,3.6,0.8,5.2c0.8,1.6,1.9,2.6,3.2,2.9c1.4,0.3,2.7,0,3.9-1c1.2-1.1,1.9-2.5,2.2-4.4c0.2-1.9,0-3.7-0.8-5.3
					c-0.8-1.6-1.9-2.6-3.3-2.9c-1.3-0.4-2.6,0-3.8,1C173.6,13.4,172.8,14.9,172.6,16.8z"></path></g></g><g><path d="M12.7,50.3c-1.3-0.3-2.5-1.1-3.3-2.3C5.8,42.2,4,35.3,4,27.6c0-8.7,2.3-16.3,6.7-22.4C15.5-1.6,21.6-5,28.8-5
				c7.1,0,13.2,3.4,18,10.2c4.4,6.2,6.6,13.7,6.6,22.4c0,7.8-1.8,14.6-5.4,20.4c-1.2,2-3.6,2.8-5.8,2.1c-8.3-2.8-17.4-2.8-27,0.1
				C14.3,50.4,13.5,50.4,12.7,50.3z M30.8,5.2C30.1,5,29.4,5,28.8,5c0,0,0,0-0.1,0c-5,0-8,3.4-9.8,5.9c0,0,0,0,0,0
				c-3.3,4.5-4.8,9.9-4.8,16.6c0,4.5,0.7,8.4,2.2,11.9c8.6-2,17-2,24.9-0.1c1.5-3.5,2.2-7.3,2.2-11.8c0,0,0,0,0,0
				c0-6.7-1.5-12.1-4.7-16.6C35.7,7,33,5.6,30.8,5.2z M154.4,50.3c-1.3-0.3-2.5-1.1-3.3-2.3c-3.6-5.8-5.4-12.7-5.4-20.4
				c0-8.7,2.3-16.3,6.7-22.4c4.8-6.8,10.9-10.2,18-10.1c7.1,0,13.2,3.4,18,10.2c4.4,6.2,6.6,13.7,6.6,22.4c0,7.8-1.8,14.6-5.4,20.4
				c-1.3,2-3.8,2.9-6.1,2c-8.9-3.5-17.5-3.5-26.3,0C156.3,50.4,155.4,50.4,154.4,50.3z M172.6,5.2C171.8,5,171.1,5,170.5,5
				c0,0,0,0-0.1,0c-5,0-8,3.4-9.8,5.9c0,0,0,0,0,0c-3.3,4.5-4.8,9.9-4.8,16.6c0,4.4,0.7,8.2,2.1,11.6c8.3-2.4,16.8-2.4,25.1,0
				c1.4-3.4,2.1-7.2,2.1-11.6c0,0,0,0,0,0c0-6.7-1.5-12.1-4.7-16.6C177.5,7,174.8,5.6,172.6,5.2z"></path></g></g></g><g id="emotion_x5F_bigsmile_x5F_mouth_x5F_capy" transform="matrix(2.8626556396484375, -0.55804443359375, 0.55804443359375, 2.8626556396484375, 2017.75,1110.25)"><g transform="matrix(1, 0, 0, 1, 0, 0)"><g><g id="Symbol_16_10_Layer0_0_FILL"><path fill="#ffffff" d="M131.2,1.6c0-0.6,0-1.1,0-1.6L-24.9,0c0,0.5,0,1.1,0,1.6c0,12.7,3.4,24.2,10.1,34.4
					c3.4,5.2,7.6,10.1,12.7,14.6C13.1,64.2,31.6,71,53.2,71c21.6,0,40-6.8,55.2-20.3c5.1-4.5,9.4-9.4,12.8-14.6
					C127.9,25.9,131.2,14.4,131.2,1.6 M100.3,32c8-1,15.9-2.3,23.8-3.9C116.3,29.8,108.3,31,100.3,32C84.7,34,69,35,53.2,34.8
					c-15.7-0.2-31.5-1.3-47.4-3.5c-6.2-0.9-12.4-1.9-18.6-3.1c6.2,1.2,12.4,2.2,18.6,3.1c15.9,2.2,31.7,3.4,47.4,3.5
					C69,35,84.7,34,100.3,32z"></path></g></g><g><path d="M34.6,74.3c-15-2.9-28.5-9.6-40-19.8c-5.4-4.8-10-10.1-13.6-15.6c-7.2-11-10.9-23.5-10.9-37.2l0-1.7c0-2.8,2.2-5,5-5
				l156.2,0c2.8,0,5,2.2,5,5l0,1.7c0,13.7-3.7,26.2-10.9,37.2c-3.7,5.5-8.3,10.8-13.7,15.6C95.6,68.7,75.9,76,53.1,76
				C46.7,76,40.5,75.4,34.6,74.3z M-10.4,33.7c3.1,4.7,7,9.1,11.6,13.2c7.1,6.3,15.1,11.1,23.7,14.3C33.5,64.4,43,66,53.2,66
				c10.1,0,19.6-1.6,28.2-4.8c8.6-3.2,16.5-8,23.6-14.3c4.3-3.8,8-7.9,11-12.2c-5,0.9-10,1.6-15,2.2c-15.8,2-31.9,3-47.9,2.8
				c-15.8-0.2-32-1.4-48-3.6C-0.1,35.5-5.2,34.7-10.4,33.7z M-19.9,5c0.4,6.7,1.8,13.1,4.2,19c1.1-0.7,2.4-1,3.7-0.7
				c6.1,1.2,12.3,2.2,18.4,3.1c15.6,2.2,31.3,3.3,46.8,3.5c15.5,0.1,31.1-0.8,46.5-2.8c7.5-0.9,15-2.1,22.4-3.6
				c2.3-5.8,3.7-12,4-18.5L-19.9,5z"></path></g></g></g></svg><svg viewBox="0 0 3000 3000"><path fill-rule="evenodd" clip-rule="evenodd" d="M2727.8,2633.6L2727.8,2633.6c9.4,11.9,15,27,15,43.3c0,16.4-5.8,31.9-15.4,43.8l-0.8,1l-0.2-1.3  c-0.2-1.1-0.4-2.2-0.7-3.4c-4.8-21.4-20.5-39.8-46.4-54.6c-17.5-10-27.5-22.1-30.1-35.8c-1.7-8.9-0.4-17.8,2-25.4  c2.4-7.6,6.1-14,9.1-17.8l10.1-12.4c1.8-2.2,5.1-2.2,6.8,0L2727.8,2633.6L2727.8,2633.6z M2743.7,2621.2L2743.7,2621.2l-67.4-83.3  c-1.3-1.6-3.7-1.6-5,0l-67.4,83.3v0l-0.2,0.3c-12.4,15.6-19.8,35.3-19.8,56.8c0,50.1,40.3,90.7,90,90.7s90-40.6,90-90.7  c0-21.5-7.4-41.3-19.8-56.8L2743.7,2621.2L2743.7,2621.2z M2619.9,2633.4l6-7.5l0.2,1.4c0.2,1.1,0.3,2.2,0.5,3.3  c3.9,20.7,17.9,37.9,41.2,51.3c20.3,11.6,32.1,25,35.5,39.7c1.4,6.1,1.7,12.2,1.1,17.4l0,0.3l-0.3,0.1c-9.1,4.5-19.4,7.1-30.3,7.1  c-38.1,0-69-31.2-69-69.6C2604.7,2660.4,2610.4,2645.3,2619.9,2633.4L2619.9,2633.4z"></path></svg></svg>